{"glyphs":{"0":{"ha":786,"x_min":101,"x_max":685,"o":"m 613 122 q 577 54 613 122 q 393 -14 542 -14 q 173 121 244 -14 q 101 486 101 256 q 173 851 101 717 q 393 986 244 986 q 613 851 542 986 q 685 486 685 715 q 613 122 685 257 m 578 819 q 546 882 578 819 q 393 944 514 944 q 208 819 272 944 q 143 486 143 694 q 208 153 143 278 q 393 28 272 28 q 578 153 514 28 q 643 486 643 279 q 578 819 643 693 z "},"1":{"ha":363,"x_min":65,"x_max":224,"o":"m 224 0 l 182 0 l 182 821 l 108 567 l 65 567 l 182 972 l 224 972 l 224 0 z "},"2":{"ha":732,"x_min":89,"x_max":644,"o":"m 639 0 l 89 0 l 89 97 q 127 224 89 161 q 222 333 165 286 q 346 433 279 381 q 469 528 413 485 q 565 626 526 572 q 603 732 603 681 q 583 846 603 801 q 526 910 564 890 q 449 938 488 931 q 356 944 411 944 q 220 907 275 944 q 136 776 165 869 l 286 664 l 218 664 l 89 761 q 183 931 118 875 q 356 986 249 986 q 576 926 508 986 q 644 732 644 867 q 606 611 644 671 q 511 506 568 551 q 388 409 454 460 q 264 314 321 358 q 169 213 207 269 q 131 97 131 156 l 131 42 l 639 42 l 639 0 z "},"3":{"ha":774,"x_min":49,"x_max":693,"o":"m 121 972 l 665 972 l 372 600 q 489 572 435 592 q 590 516 543 551 q 665 424 638 481 q 693 294 693 367 q 608 69 693 151 q 376 -14 522 -14 q 251 4 310 -14 q 158 47 193 22 q 96 97 122 72 q 58 140 69 122 l 49 158 l 88 175 q 99 159 92 169 q 132 124 106 149 q 189 79 158 99 q 270 44 219 60 q 376 28 321 28 q 580 99 508 28 q 651 294 651 171 q 572 474 651 410 q 367 558 493 538 l 297 569 l 579 931 l 121 931 l 121 972 z "},"4":{"ha":639,"x_min":46,"x_max":579,"o":"m 468 0 l 426 0 l 426 283 l 46 283 l 46 325 l 419 972 l 468 972 l 468 325 l 579 325 l 579 283 l 468 283 l 468 0 m 426 325 l 426 901 l 94 325 l 426 325 z "},"5":{"ha":739,"x_min":60,"x_max":665,"o":"m 193 669 l 344 669 q 569 572 474 669 q 665 329 665 475 q 578 84 665 182 q 349 -14 492 -14 q 228 3 282 -14 q 144 46 174 21 q 93 96 114 71 q 67 139 72 121 l 60 156 l 99 172 q 105 157 100 167 q 129 122 110 147 q 174 78 149 97 q 247 43 200 58 q 349 28 293 28 q 550 115 476 28 q 624 329 624 201 q 540 540 624 451 q 339 628 456 628 l 151 628 l 151 972 l 563 972 l 563 931 l 193 931 l 193 669 z "},"6":{"ha":731,"x_min":75,"x_max":658,"o":"m 117 331 q 192 108 117 190 q 390 26 267 26 q 549 75 482 26 q 617 240 617 124 q 592 347 617 300 q 530 417 567 393 q 458 453 493 442 q 397 465 424 465 q 316 453 357 465 q 255 429 275 440 q 229 413 235 418 l 204 447 q 230 464 214 454 q 296 490 246 474 q 396 507 346 507 q 573 437 488 507 q 658 239 658 367 q 581 47 658 108 q 389 -14 504 -14 q 162 81 249 -14 q 75 332 75 175 q 108 523 75 421 q 200 723 140 625 q 361 894 260 821 q 586 988 463 968 l 597 947 q 424 885 504 933 q 288 772 343 838 q 194 627 233 706 q 135 473 154 549 q 117 331 117 397 z "},"7":{"ha":572,"x_min":35,"x_max":560,"o":"m 560 972 q 522 908 546 949 q 439 745 499 867 q 334 510 379 624 q 251 254 289 397 q 214 0 214 111 l 172 0 q 233 352 172 154 q 360 689 293 550 q 490 931 426 828 l 35 931 l 35 972 l 560 972 z "},"8":{"ha":811,"x_min":85,"x_max":726,"o":"m 644 66 q 602 26 644 66 q 404 -14 561 -14 q 166 66 247 -14 q 85 271 85 146 q 254 511 85 447 q 138 715 138 576 q 213 910 138 833 q 404 986 289 986 q 597 910 521 986 q 674 715 674 833 q 557 511 674 576 q 726 271 726 447 q 644 66 726 146 m 479 932 q 460 938 479 932 q 406 944 442 944 q 332 932 369 944 q 259 894 294 919 q 201 823 224 869 q 179 715 179 776 q 275 547 179 600 l 353 503 l 269 472 q 126 271 126 419 q 210 87 126 146 q 404 28 293 28 q 600 87 515 28 q 685 271 685 146 q 542 472 685 419 l 458 503 l 536 547 q 632 715 632 600 q 610 823 632 776 q 552 894 588 869 q 479 932 517 919 z "},"9":{"ha":732,"x_min":72,"x_max":656,"o":"m 614 642 q 539 864 614 782 q 340 946 464 946 q 181 897 249 946 q 114 732 114 849 q 139 626 114 672 q 201 555 164 579 q 272 519 238 531 q 333 507 307 507 q 415 519 374 507 q 476 543 456 532 q 501 560 496 554 l 526 525 q 501 508 517 518 q 435 482 485 499 q 335 465 385 465 q 158 535 243 465 q 72 733 72 606 q 149 925 72 864 q 342 986 226 986 q 569 892 482 986 q 656 640 656 797 q 623 449 656 551 q 531 249 590 347 q 369 78 471 151 q 144 -15 268 4 l 133 25 q 307 87 226 39 q 442 201 388 135 q 537 345 497 267 q 595 499 576 424 q 614 642 614 575 z "}," ":{"ha":410,"x_min":0,"x_max":0,"o":""},"!":{"ha":333,"x_min":121,"x_max":213,"o":"m 121 81 l 213 81 l 213 0 l 121 0 l 121 81 m 188 188 l 146 188 l 146 972 l 188 972 l 188 188 z "},"\"":{"ha":425,"x_min":115,"x_max":310,"o":"m 268 972 l 310 972 l 310 719 l 268 719 l 268 972 m 115 972 l 157 972 l 157 719 l 115 719 l 115 972 z "},"#":{"ha":808,"x_min":79,"x_max":729,"o":"m 203 4 l 161 11 l 217 326 l 79 326 l 79 368 l 225 368 l 267 604 l 107 604 l 107 646 l 274 646 l 331 968 l 372 961 l 317 646 l 549 646 l 606 968 l 647 961 l 592 646 l 729 646 l 729 604 l 583 604 l 542 368 l 701 368 l 701 326 l 535 326 l 478 4 l 436 11 l 492 326 l 260 326 l 203 4 m 308 604 l 267 368 l 500 368 l 542 604 l 308 604 z "},"$":{"ha":731,"x_min":92,"x_max":651,"o":"m 371 0 l 329 0 l 329 65 q 92 142 158 71 l 119 172 q 329 107 188 110 l 329 479 q 240 510 275 496 q 169 549 206 525 q 114 610 132 574 q 96 694 96 646 q 161 849 96 797 q 329 906 226 901 l 329 972 l 371 972 l 371 906 q 593 829 525 901 l 565 799 q 371 864 503 858 l 371 511 q 440 490 419 497 q 502 468 461 483 q 563 438 543 453 q 608 399 583 422 q 642 344 632 375 q 651 275 651 314 q 579 127 651 183 q 371 65 507 71 l 371 0 m 371 467 l 371 108 q 549 163 489 115 q 610 274 610 211 q 595 337 610 308 q 562 383 581 365 q 506 418 543 401 q 444 444 469 435 q 371 467 418 453 m 329 524 l 329 864 q 138 692 138 854 q 187 588 138 624 q 329 524 236 551 z "},"%":{"ha":808,"x_min":82,"x_max":724,"o":"m 585 401 q 515 372 543 401 q 488 304 488 343 q 517 235 488 263 q 585 207 546 207 q 654 236 626 207 q 682 304 682 265 q 653 374 682 346 q 585 401 624 401 m 446 304 q 488 403 446 364 q 585 443 529 443 q 684 401 644 443 q 724 304 724 360 q 682 205 724 244 q 585 165 640 165 q 485 207 525 165 q 446 304 446 249 m 221 765 q 151 736 179 765 q 124 668 124 707 q 153 599 124 626 q 221 571 182 571 q 290 600 263 571 q 318 668 318 629 q 289 738 318 710 q 221 765 260 765 m 82 668 q 124 767 82 728 q 221 807 165 807 q 320 765 281 807 q 360 668 360 724 q 318 569 360 608 q 221 529 276 529 q 122 571 161 529 q 82 668 82 613 m 192 246 l 163 275 l 614 726 l 643 697 l 192 246 z "},"&":{"ha":814,"x_min":72,"x_max":728,"o":"m 224 931 l 617 190 q 686 464 686 306 l 728 464 q 642 143 728 269 l 718 0 l 671 0 l 614 108 q 350 -7 511 -7 q 156 78 239 -7 q 72 311 72 164 q 146 503 72 426 q 353 597 219 579 l 154 972 l 686 972 l 686 931 l 224 931 m 590 151 l 375 557 q 186 474 258 542 q 114 311 114 406 q 186 114 114 193 q 350 35 258 35 q 590 151 497 35 z "},"'":{"ha":272,"x_min":115,"x_max":157,"o":"m 115 972 l 157 972 l 157 719 l 115 719 l 115 972 z "},"(":{"ha":340,"x_min":114,"x_max":272,"o":"m 114 307 l 114 665 q 246 1047 114 957 l 272 1014 q 156 665 156 935 l 156 307 q 272 -42 156 38 l 246 -75 q 114 307 114 15 z "},")":{"ha":340,"x_min":68,"x_max":226,"o":"m 226 665 l 226 307 q 94 -75 226 15 l 68 -42 q 185 307 185 38 l 185 665 q 68 1014 185 935 l 94 1047 q 226 665 226 957 z "},"*":{"ha":606,"x_min":83,"x_max":522,"o":"m 183 556 l 157 575 l 276 739 l 83 801 l 94 833 l 286 771 l 286 972 l 319 972 l 319 771 l 511 833 l 522 801 l 329 739 l 449 575 l 422 556 l 303 719 l 183 556 z "},"+":{"ha":542,"x_min":92,"x_max":450,"o":"m 92 326 l 92 368 l 250 368 l 250 526 l 292 526 l 292 368 l 450 368 l 450 326 l 292 326 l 292 168 l 250 168 l 250 326 l 92 326 z "},",":{"ha":311,"x_min":92,"x_max":201,"o":"m 92 -217 q 128 -131 107 -196 q 150 0 150 -65 l 110 0 l 110 81 l 201 81 q 126 -239 201 -129 l 92 -217 z "},"-":{"ha":506,"x_min":115,"x_max":390,"o":"m 115 326 l 115 368 l 390 368 l 390 326 l 115 326 z "},".":{"ha":311,"x_min":110,"x_max":201,"o":"m 110 81 l 201 81 l 201 0 l 110 0 l 110 81 z "},"/":{"ha":571,"x_min":54,"x_max":518,"o":"m 92 -50 l 54 -35 l 481 1022 l 518 1007 l 92 -50 z "},":":{"ha":339,"x_min":124,"x_max":215,"o":"m 124 219 l 215 219 l 215 139 l 124 139 l 124 219 m 124 497 l 215 497 l 215 417 l 124 417 l 124 497 z "},";":{"ha":364,"x_min":122,"x_max":232,"o":"m 140 497 l 232 497 l 232 417 l 140 417 l 140 497 m 122 -78 q 159 8 138 -57 q 181 139 181 74 l 140 139 l 140 219 l 232 219 q 157 -100 232 10 l 122 -78 z "},"<":{"ha":610,"x_min":60,"x_max":517,"o":"m 60 486 l 488 914 l 517 885 l 118 486 l 517 88 l 488 58 l 60 486 z "},"=":{"ha":606,"x_min":124,"x_max":482,"o":"m 124 410 l 124 451 l 482 451 l 482 410 l 124 410 m 124 521 l 124 563 l 482 563 l 482 521 l 124 521 z "},">":{"ha":610,"x_min":93,"x_max":550,"o":"m 550 486 l 122 58 l 93 88 l 492 486 l 93 885 l 122 914 l 550 486 z "},"?":{"ha":704,"x_min":67,"x_max":622,"o":"m 250 81 l 342 81 l 342 0 l 250 0 l 250 81 m 275 217 q 298 334 275 281 q 354 422 321 388 q 428 492 388 456 q 501 560 468 529 q 558 635 535 590 q 581 732 581 681 q 561 846 581 801 q 503 910 542 890 q 427 938 465 931 q 333 944 389 944 q 198 907 253 944 q 114 776 143 869 l 264 664 l 196 664 l 67 761 q 161 931 96 875 q 333 986 226 986 q 554 926 486 986 q 622 732 622 867 q 599 624 622 674 q 543 542 576 575 q 469 474 510 510 q 396 405 429 438 q 340 324 363 372 q 317 217 317 275 l 275 217 z "},"@":{"ha":878,"x_min":94,"x_max":803,"o":"m 628 339 q 442 475 442 339 q 481 567 442 538 q 575 597 521 597 q 689 557 635 597 q 617 788 689 683 q 442 892 544 892 q 224 780 311 892 q 136 481 136 668 q 220 148 136 268 q 458 28 304 28 q 630 72 549 28 q 768 197 711 117 l 803 174 q 649 35 740 85 q 458 -14 558 -14 q 189 119 283 -14 q 94 481 94 253 q 193 808 94 683 q 442 933 292 933 q 648 817 565 933 q 731 557 731 700 l 731 474 l 664 524 q 575 556 618 556 q 483 475 483 556 q 628 381 483 381 l 768 381 l 768 339 l 628 339 z "},"A":{"ha":758,"x_min":25,"x_max":733,"o":"m 163 42 l 674 42 l 379 851 l 69 0 l 25 0 l 379 974 l 733 0 l 163 0 l 163 42 z "},"B":{"ha":804,"x_min":138,"x_max":729,"o":"m 360 0 l 138 0 l 138 972 l 307 972 q 583 905 490 972 q 676 715 676 838 q 560 511 676 576 q 729 271 729 447 q 638 73 729 146 q 360 0 546 0 m 360 42 q 479 52 425 42 q 583 87 533 63 q 660 158 632 111 q 688 271 688 206 q 544 472 688 419 l 461 503 l 539 547 q 635 715 635 600 q 307 931 635 931 l 179 931 l 179 42 l 360 42 z "},"C":{"ha":815,"x_min":107,"x_max":740,"o":"m 740 178 q 635 36 703 86 q 431 -14 567 -14 q 183 91 260 -14 q 107 418 107 196 l 107 554 q 183 881 107 776 q 431 986 260 986 q 635 936 567 986 q 740 794 703 886 l 703 776 q 613 901 671 857 q 431 944 554 944 q 314 927 363 944 q 226 868 265 910 q 168 748 188 826 q 149 554 149 669 l 149 418 q 168 224 149 303 q 226 104 188 146 q 314 45 265 63 q 431 28 363 28 q 613 72 554 28 q 703 196 671 115 l 740 178 z "},"D":{"ha":824,"x_min":138,"x_max":749,"o":"m 271 0 l 138 0 l 138 972 l 271 972 q 610 825 471 972 q 749 486 749 678 q 610 147 749 294 q 271 0 471 0 m 271 42 q 580 176 453 42 q 707 486 707 310 q 580 797 707 663 q 271 931 453 931 l 179 931 l 179 42 l 271 42 z "},"E":{"ha":800,"x_min":138,"x_max":750,"o":"m 636 508 l 224 508 l 649 931 l 179 931 l 179 42 l 718 42 l 718 0 l 138 0 l 138 972 l 750 972 l 325 550 l 636 550 l 636 508 z "},"F":{"ha":764,"x_min":138,"x_max":750,"o":"m 636 508 l 224 508 l 649 931 l 179 931 l 179 0 l 138 0 l 138 972 l 750 972 l 325 550 l 636 550 l 636 508 z "},"G":{"ha":854,"x_min":107,"x_max":753,"o":"m 703 776 q 613 901 671 857 q 431 944 554 944 q 314 927 363 944 q 226 868 265 910 q 168 748 188 826 q 149 554 149 669 l 149 418 q 168 224 149 303 q 226 104 188 146 q 314 45 265 63 q 431 28 363 28 q 629 81 556 28 q 703 196 703 135 l 703 431 l 532 431 l 532 472 l 753 472 l 753 210 q 669 51 753 117 q 431 -14 585 -14 q 183 91 260 -14 q 107 418 107 196 l 107 554 q 183 881 107 776 q 431 986 260 986 q 636 935 568 986 q 742 792 704 885 l 703 776 z "},"H":{"ha":858,"x_min":138,"x_max":721,"o":"m 721 0 l 679 0 l 679 486 l 179 486 l 179 0 l 138 0 l 138 972 l 179 972 l 179 528 l 679 528 l 679 972 l 721 972 l 721 0 z "},"I":{"ha":317,"x_min":138,"x_max":179,"o":"m 179 0 l 138 0 l 138 972 l 179 972 l 179 0 z "},"J":{"ha":700,"x_min":28,"x_max":567,"o":"m 78 210 q 314 28 139 28 q 478 95 432 28 q 525 281 525 163 l 525 972 l 567 972 l 567 281 q 314 -14 567 -14 q 130 46 194 -14 q 28 210 65 106 l 78 210 z "},"K":{"ha":796,"x_min":138,"x_max":794,"o":"m 179 972 l 179 0 l 138 0 l 138 972 l 179 972 m 750 972 l 283 508 l 794 0 l 735 0 l 224 508 l 690 972 l 750 972 z "},"L":{"ha":739,"x_min":138,"x_max":718,"o":"m 718 42 l 718 0 l 138 0 l 138 972 l 179 972 l 179 42 l 718 42 z "},"M":{"ha":983,"x_min":138,"x_max":846,"o":"m 257 42 l 804 42 l 804 874 l 492 204 l 179 875 l 179 0 l 138 1 l 138 974 l 179 974 l 492 303 l 804 972 l 846 974 l 846 0 l 257 1 l 257 42 z "},"N":{"ha":885,"x_min":138,"x_max":747,"o":"m 246 42 l 676 42 l 179 901 l 179 0 l 138 0 l 138 972 l 186 972 l 706 74 l 706 972 l 747 972 l 747 0 l 246 0 l 246 42 z "},"O":{"ha":861,"x_min":107,"x_max":754,"o":"m 678 91 q 640 39 678 91 q 431 -14 601 -14 q 183 91 260 -14 q 107 418 107 196 l 107 554 q 183 881 107 776 q 431 986 260 986 q 678 881 601 986 q 754 554 754 776 l 754 418 q 678 91 754 196 m 547 927 q 523 936 547 927 q 431 944 499 944 q 314 927 363 944 q 226 868 265 910 q 168 748 188 826 q 149 554 149 669 l 149 418 q 168 224 149 303 q 226 104 188 146 q 314 45 265 63 q 431 28 363 28 q 547 45 499 28 q 635 104 596 63 q 693 224 674 146 q 713 418 713 303 l 713 554 q 693 748 713 669 q 635 868 674 826 q 547 927 596 910 z "},"P":{"ha":731,"x_min":138,"x_max":676,"o":"m 482 467 l 461 503 l 539 547 q 635 715 635 600 q 307 931 635 931 l 179 931 l 179 0 l 138 0 l 138 972 l 307 972 q 583 905 490 972 q 676 715 676 838 q 560 511 676 576 l 482 467 z "},"Q":{"ha":865,"x_min":107,"x_max":754,"o":"m 754 418 q 638 49 754 147 l 611 81 q 713 418 713 167 l 713 554 q 693 748 713 669 q 635 868 674 826 q 547 927 596 910 q 431 944 499 944 q 314 927 363 944 q 226 868 265 910 q 168 748 188 826 q 149 554 149 669 l 149 418 q 168 224 149 303 q 226 104 188 146 q 314 45 265 63 q 431 28 363 28 q 480 -181 431 -126 q 633 -236 529 -236 l 633 -278 q 460 -222 521 -278 q 390 -12 399 -167 q 174 105 242 0 q 107 418 107 210 l 107 554 q 183 881 107 776 q 431 986 260 986 q 678 881 601 986 q 754 554 754 776 l 754 418 z "},"R":{"ha":764,"x_min":138,"x_max":689,"o":"m 246 42 l 629 42 l 461 503 l 539 547 q 635 715 635 600 q 307 931 635 931 l 179 931 l 179 0 l 138 0 l 138 972 l 307 972 q 583 905 490 972 q 676 715 676 838 q 560 511 676 576 l 513 485 l 689 0 l 246 0 l 246 42 z "},"S":{"ha":779,"x_min":74,"x_max":699,"o":"m 108 732 q 176 926 108 867 q 397 986 244 986 q 569 931 504 986 q 664 761 635 875 l 535 664 l 467 664 l 617 776 q 533 907 588 869 q 397 944 478 944 q 303 938 342 944 q 227 910 265 931 q 169 846 189 890 q 150 732 150 801 q 206 624 150 671 q 343 543 263 576 q 505 475 424 510 q 642 386 586 440 q 699 261 699 332 q 630 54 699 122 q 394 -14 561 -14 q 181 41 258 -14 q 74 211 103 96 l 113 228 q 208 72 140 115 q 394 28 275 28 q 592 79 528 28 q 657 261 657 131 q 601 369 657 322 q 463 450 544 417 q 301 518 382 483 q 165 607 221 553 q 108 732 108 661 z "},"T":{"ha":736,"x_min":21,"x_max":715,"o":"m 715 972 l 715 931 l 389 931 l 389 0 l 347 0 l 347 931 l 21 931 l 21 972 l 715 972 z "},"U":{"ha":897,"x_min":125,"x_max":772,"o":"m 240 972 l 772 972 l 772 418 q 696 91 772 196 q 449 -14 619 -14 q 201 91 278 -14 q 125 418 125 196 l 125 972 l 167 972 l 167 418 q 186 224 167 303 q 244 104 206 146 q 332 45 283 63 q 449 28 381 28 q 565 45 517 28 q 653 104 614 63 q 711 224 692 146 q 731 418 731 303 l 731 931 l 240 931 l 240 972 z "},"V":{"ha":756,"x_min":24,"x_max":732,"o":"m 163 972 l 732 972 l 378 -1 l 24 972 l 68 972 l 378 121 l 672 931 l 163 931 l 163 972 z "},"W":{"ha":1115,"x_min":24,"x_max":1092,"o":"m 163 931 l 163 972 l 1092 972 l 738 -1 l 557 493 l 378 -1 l 24 972 l 68 972 l 378 121 l 557 615 l 738 121 l 1032 931 l 163 931 z "},"X":{"ha":672,"x_min":40,"x_max":632,"o":"m 360 513 l 632 0 l 585 0 l 336 468 l 88 0 l 40 0 l 313 513 l 68 972 l 115 972 l 336 557 l 557 972 l 604 972 l 360 513 z "},"Y":{"ha":758,"x_min":11,"x_max":747,"o":"m 185 972 l 747 972 l 400 417 l 400 0 l 358 0 l 358 417 l 11 972 l 60 972 l 379 463 l 672 931 l 185 931 l 185 972 z "},"Z":{"ha":667,"x_min":43,"x_max":610,"o":"m 610 0 l 43 0 l 538 931 l 79 931 l 79 972 l 607 972 l 113 42 l 610 42 l 610 0 z "},"[":{"ha":363,"x_min":139,"x_max":289,"o":"m 289 0 l 139 0 l 139 972 l 289 972 l 289 931 l 181 931 l 181 42 l 289 42 l 289 0 z "},"\\":{"ha":571,"x_min":53,"x_max":517,"o":"m 479 -50 l 53 1007 l 90 1022 l 517 -35 l 479 -50 z "},"]":{"ha":363,"x_min":74,"x_max":224,"o":"m 74 972 l 224 972 l 224 0 l 74 0 l 74 42 l 182 42 l 182 931 l 74 931 l 74 972 z "},"^":{"ha":450,"x_min":63,"x_max":388,"o":"m 225 1089 l 388 894 l 356 868 l 225 1024 l 94 868 l 63 894 l 225 1089 z "},"_":{"ha":697,"x_min":71,"x_max":626,"o":"m 71 -125 l 71 -83 l 626 -83 l 626 -125 l 71 -125 z "},"`":{"ha":319,"x_min":63,"x_max":257,"o":"m 63 1061 l 94 1089 l 257 894 l 225 868 l 63 1061 z "},"a":{"ha":747,"x_min":26,"x_max":721,"o":"m 206 42 l 658 42 l 374 713 l 71 0 l 26 0 l 374 819 l 721 0 l 206 0 l 206 42 z "},"b":{"ha":744,"x_min":132,"x_max":664,"o":"m 332 0 l 132 0 l 132 806 l 285 806 q 533 749 449 806 q 617 593 617 692 q 513 422 617 475 q 626 344 589 396 q 664 224 664 292 q 581 62 664 124 q 332 0 499 0 m 332 42 q 538 86 454 42 q 622 224 622 131 q 590 317 622 267 q 492 392 558 368 l 419 417 l 486 451 q 548 506 521 469 q 575 593 575 543 q 492 722 575 681 q 285 764 408 764 l 174 764 l 174 42 l 332 42 z "},"c":{"ha":746,"x_min":97,"x_max":671,"o":"m 172 85 q 135 134 172 85 q 97 403 97 183 q 172 721 97 622 q 421 819 247 819 q 671 724 594 819 l 640 696 q 421 778 579 778 q 304 763 351 778 q 217 709 257 749 q 158 594 178 669 q 139 403 139 518 q 158 212 139 288 q 217 97 178 136 q 304 42 257 57 q 421 28 351 28 q 640 110 579 28 l 671 82 q 421 -14 594 -14 q 172 85 247 -14 z "},"d":{"ha":768,"x_min":132,"x_max":688,"o":"m 238 0 l 132 0 l 132 806 l 238 806 q 565 697 443 806 q 688 403 688 589 q 565 108 688 217 q 238 0 443 0 m 238 42 q 535 138 425 42 q 646 403 646 233 q 535 668 646 572 q 238 764 425 764 l 174 764 l 174 42 l 238 42 z "},"e":{"ha":761,"x_min":97,"x_max":694,"o":"m 671 82 q 421 -14 594 -14 q 172 85 247 -14 q 97 403 97 183 q 172 721 97 622 q 421 819 247 819 q 694 688 622 819 l 354 403 l 289 403 l 640 696 q 421 778 579 778 q 304 763 351 778 q 217 709 257 749 q 158 594 178 669 q 139 403 139 518 q 158 212 139 288 q 217 97 178 136 q 304 42 257 57 q 421 28 351 28 q 640 110 579 28 l 671 82 z "},"f":{"ha":797,"x_min":118,"x_max":721,"o":"m 118 0 l 118 403 q 194 721 118 622 q 442 819 269 819 q 715 688 643 819 l 425 444 l 721 444 l 721 403 l 310 403 l 661 696 q 442 778 600 778 q 325 763 372 778 q 238 709 278 749 q 179 594 199 669 q 160 403 160 518 l 160 0 l 118 0 z "},"g":{"ha":792,"x_min":97,"x_max":694,"o":"m 456 542 l 640 696 q 421 778 579 778 q 304 763 351 778 q 217 709 257 749 q 158 594 178 669 q 139 403 139 518 q 158 212 139 288 q 217 97 178 136 q 304 42 257 57 q 421 28 351 28 q 639 108 578 28 l 639 354 l 681 354 l 681 -12 q 438 -278 681 -278 l 275 -278 l 275 -236 l 438 -236 q 590 -181 542 -236 q 639 28 639 -126 l 639 49 q 421 -14 564 -14 q 172 85 247 -14 q 97 403 97 183 q 172 721 97 622 q 421 819 247 819 q 694 688 622 819 l 521 542 l 456 542 z "},"h":{"ha":764,"x_min":132,"x_max":632,"o":"m 632 0 l 590 0 l 590 403 l 174 403 l 174 0 l 132 0 l 132 806 l 174 806 l 174 444 l 590 444 l 590 806 l 632 806 l 632 0 z "},"i":{"ha":306,"x_min":132,"x_max":174,"o":"m 132 806 l 174 806 l 174 0 l 132 0 l 132 806 z "},"j":{"ha":600,"x_min":-29,"x_max":468,"o":"m 21 -54 q 236 -236 58 -236 q 389 -172 351 -236 q 426 17 426 -107 l 426 806 l 468 806 l 468 17 q 467 -46 468 -22 q 460 -110 465 -69 q 439 -174 454 -150 q 399 -226 424 -199 q 333 -265 375 -253 q 236 -278 292 -278 q -29 -54 18 -278 l 21 -54 z "},"k":{"ha":715,"x_min":132,"x_max":706,"o":"m 132 0 l 132 806 l 174 806 l 174 0 l 132 0 m 646 0 l 218 425 l 601 806 l 661 806 l 278 425 l 706 0 l 646 0 z "},"l":{"ha":624,"x_min":132,"x_max":596,"o":"m 596 42 l 596 0 l 132 0 l 132 806 l 174 806 l 174 42 l 596 42 z "},"m":{"ha":972,"x_min":132,"x_max":840,"o":"m 263 42 l 799 42 l 799 747 l 486 435 l 174 747 l 174 0 l 132 1 l 132 806 l 174 806 l 486 493 l 799 806 l 840 806 l 840 0 l 263 1 l 263 42 z "},"n":{"ha":800,"x_min":132,"x_max":668,"o":"m 132 0 l 132 806 l 174 806 l 626 76 l 626 806 l 668 806 l 668 0 l 626 0 l 174 731 l 174 0 l 132 0 z "},"o":{"ha":842,"x_min":97,"x_max":744,"o":"m 538 763 q 514 770 538 763 q 421 778 490 778 q 304 763 351 778 q 217 709 257 749 q 158 594 178 669 q 139 403 139 518 q 158 212 139 288 q 217 97 178 136 q 304 42 257 57 q 421 28 351 28 q 538 42 490 28 q 624 97 585 57 q 683 212 664 136 q 703 403 703 288 q 683 594 703 518 q 624 709 664 669 q 538 763 585 749 m 669 85 q 632 35 669 85 q 421 -14 594 -14 q 172 85 247 -14 q 97 403 97 183 q 172 721 97 622 q 421 819 247 819 q 669 721 594 819 q 744 403 744 622 q 669 85 744 183 z "},"p":{"ha":735,"x_min":132,"x_max":671,"o":"m 476 300 l 456 336 l 533 381 q 629 549 629 433 q 301 764 629 764 l 174 764 l 174 -278 l 132 -278 l 132 806 l 301 806 q 578 738 485 806 q 671 549 671 671 q 554 344 671 410 l 476 300 z "},"q":{"ha":843,"x_min":99,"x_max":746,"o":"m 382 -12 q 165 97 231 -3 q 99 403 99 196 q 174 721 99 622 q 422 819 250 819 q 670 721 594 819 q 746 403 746 622 q 619 36 746 125 l 596 69 q 704 403 704 143 q 685 594 704 518 q 626 709 665 669 q 539 763 586 749 q 422 778 492 778 q 306 763 353 778 q 219 709 258 749 q 160 594 179 669 q 140 403 140 518 q 160 212 140 288 q 219 97 179 136 q 306 42 258 57 q 422 28 353 28 q 472 -181 422 -126 q 625 -236 521 -236 l 625 -278 q 451 -222 513 -278 q 382 -12 390 -167 z "},"r":{"ha":717,"x_min":132,"x_max":660,"o":"m 471 404 l 660 0 l 614 0 l 419 417 q 444 428 422 418 q 474 444 465 439 q 501 461 482 449 q 531 485 521 474 q 552 513 540 497 q 569 549 564 529 q 575 593 575 569 q 492 722 575 681 q 285 764 408 764 l 174 764 l 174 0 l 132 0 l 132 806 l 285 806 q 533 749 449 806 q 617 593 617 692 q 574 480 617 529 q 471 404 531 431 z "},"s":{"ha":718,"x_min":88,"x_max":647,"o":"m 344 822 q 589 746 517 822 l 561 715 q 350 781 494 781 q 133 608 133 781 q 186 502 133 542 q 315 442 239 463 q 466 398 390 421 q 594 324 542 375 q 647 192 647 274 q 568 39 647 96 q 339 -18 489 -18 q 194 1 265 -18 q 88 58 122 21 l 115 89 q 333 24 186 24 q 537 74 468 24 q 606 190 606 124 q 553 303 606 260 q 424 367 500 346 q 273 412 349 389 q 144 483 197 435 q 92 611 92 532 q 163 770 92 718 q 344 822 235 822 z "},"t":{"ha":681,"x_min":28,"x_max":653,"o":"m 653 806 l 653 764 l 361 764 l 361 0 l 319 0 l 319 764 l 28 764 l 28 806 l 653 806 z "},"u":{"ha":814,"x_min":118,"x_max":696,"o":"m 160 806 l 160 403 q 226 112 160 196 q 407 28 292 28 q 588 112 522 28 q 654 403 654 196 l 654 806 l 696 806 l 696 403 q 407 -14 696 -14 q 118 403 118 -14 l 118 806 l 160 806 z "},"v":{"ha":744,"x_min":25,"x_max":719,"o":"m 719 806 l 372 -14 l 25 806 l 69 806 l 372 93 l 675 806 l 719 806 z "},"w":{"ha":1163,"x_min":25,"x_max":1138,"o":"m 69 806 l 372 93 l 582 586 l 790 93 l 1075 764 l 179 764 l 179 806 l 1138 806 l 790 -14 l 582 479 l 372 -14 l 25 806 l 69 806 z "},"x":{"ha":636,"x_min":43,"x_max":593,"o":"m 343 435 l 593 0 l 544 0 l 318 392 l 92 0 l 43 0 l 293 435 l 79 806 l 128 806 l 318 476 l 508 806 l 557 806 l 343 435 z "},"y":{"ha":742,"x_min":24,"x_max":718,"o":"m 181 806 l 718 806 l 392 35 l 392 -278 l 350 -278 l 350 35 l 24 806 l 68 806 l 371 93 l 656 764 l 181 764 l 181 806 z "},"z":{"ha":642,"x_min":60,"x_max":579,"o":"m 501 764 l 68 764 l 68 806 l 574 806 l 132 42 l 579 42 l 579 0 l 60 0 l 501 764 z "},"{":{"ha":376,"x_min":42,"x_max":315,"o":"m 42 492 q 158 753 158 551 q 299 1050 158 979 l 315 1015 q 200 753 200 957 q 100 486 200 558 q 200 219 200 414 q 315 -43 200 15 l 299 -78 q 158 219 158 -7 q 42 481 158 421 l 42 492 z "},"|":{"ha":314,"x_min":136,"x_max":178,"o":"m 178 -83 l 136 -83 l 136 1056 l 178 1056 l 178 -83 z "},"}":{"ha":376,"x_min":61,"x_max":335,"o":"m 335 481 q 218 219 218 421 q 78 -78 218 -7 l 61 -43 q 176 219 176 15 q 276 486 176 414 q 176 753 176 558 q 61 1015 176 957 l 78 1050 q 218 753 218 979 q 335 492 218 551 l 335 481 z "},"~":{"ha":501,"x_min":94,"x_max":425,"o":"m 328 864 q 254 897 289 864 q 192 931 219 931 q 153 913 169 931 q 136 864 136 894 l 94 864 q 124 942 94 913 q 192 972 154 972 q 265 939 231 972 q 328 906 300 906 q 367 924 350 906 q 383 972 383 942 l 425 972 q 395 894 425 924 q 328 864 365 864 z "}," ":{"ha":410,"x_min":0,"x_max":0,"o":""},"¡":{"ha":317,"x_min":113,"x_max":204,"o":"m 204 725 l 113 725 l 113 806 l 204 806 l 204 725 m 138 618 l 179 618 l 179 -167 l 138 -167 l 138 618 z "},"¢":{"ha":740,"x_min":85,"x_max":658,"o":"m 418 0 l 376 0 l 376 99 q 156 208 226 108 q 85 476 85 308 q 376 843 85 825 l 376 972 l 418 972 l 418 844 q 658 749 585 843 l 628 721 q 418 803 567 800 l 418 150 q 628 232 567 153 l 658 204 q 418 97 578 101 l 418 0 m 376 151 l 376 801 q 126 476 126 783 q 376 151 126 169 z "},"£":{"ha":746,"x_min":71,"x_max":681,"o":"m 71 44 q 146 126 122 74 q 169 275 169 178 l 169 554 q 226 883 169 779 q 424 986 283 986 q 606 906 543 986 l 568 881 q 424 944 514 944 q 265 860 318 944 q 211 554 211 776 l 376 554 l 376 513 l 211 513 l 211 275 q 131 42 211 118 l 681 42 l 681 0 l 71 0 l 71 44 z "},"¤":{"ha":668,"x_min":114,"x_max":554,"o":"m 235 453 q 215 433 235 453 q 194 356 194 413 q 235 258 194 299 q 333 217 276 217 q 432 258 390 217 q 474 356 474 299 q 432 453 474 413 q 333 494 390 494 q 235 453 276 494 m 196 239 q 153 356 153 292 q 189 463 153 413 l 114 538 l 144 567 l 218 493 q 333 536 271 536 q 450 493 397 536 l 524 567 l 554 538 l 479 463 q 515 356 515 413 q 472 239 515 292 l 554 157 l 524 128 l 440 211 q 333 175 390 175 q 226 211 276 175 l 144 128 l 114 157 l 196 239 z "},"¥":{"ha":708,"x_min":64,"x_max":644,"o":"m 114 972 l 354 588 l 594 972 l 644 972 l 375 542 l 375 458 l 567 458 l 567 417 l 375 417 l 375 319 l 567 319 l 567 278 l 375 278 l 375 0 l 333 0 l 333 278 l 142 278 l 142 319 l 333 319 l 333 417 l 142 417 l 142 458 l 333 458 l 333 542 l 64 972 l 114 972 z "},"¦":{"ha":319,"x_min":139,"x_max":181,"o":"m 139 556 l 139 1056 l 181 1056 l 181 556 l 139 556 m 181 417 l 181 -83 l 139 -83 l 139 417 l 181 417 z "},"¨":{"ha":464,"x_min":63,"x_max":401,"o":"m 310 989 l 401 989 l 401 908 l 310 908 l 310 989 m 63 989 l 154 989 l 154 908 l 63 908 l 63 989 z "},"©":{"ha":847,"x_min":100,"x_max":747,"o":"m 540 763 q 517 770 540 763 q 424 778 493 778 q 307 763 354 778 q 220 709 260 749 q 161 594 181 669 q 142 403 142 518 q 161 212 142 288 q 220 97 181 136 q 307 42 260 57 q 424 28 354 28 q 540 42 493 28 q 627 97 588 57 q 686 212 667 136 q 706 403 706 288 q 686 594 706 518 q 627 709 667 669 q 540 763 588 749 m 672 85 q 635 35 672 85 q 424 -14 597 -14 q 175 85 250 -14 q 100 403 100 183 q 175 721 100 622 q 424 819 250 819 q 672 721 597 819 q 747 403 747 622 q 672 85 747 183 m 425 183 q 291 239 329 183 q 253 403 253 294 q 292 567 253 513 q 425 622 331 622 q 564 563 517 622 l 533 535 l 526 544 q 425 581 499 581 q 322 539 349 581 q 294 403 294 497 q 322 266 294 307 q 425 225 350 225 q 526 261 500 225 l 533 271 l 564 243 l 558 235 q 425 183 518 183 z "},"«":{"ha":600,"x_min":85,"x_max":472,"o":"m 85 486 l 279 649 l 306 617 l 150 486 l 306 356 l 279 324 l 85 486 m 251 486 l 446 649 l 472 617 l 317 486 l 472 356 l 446 324 l 251 486 z "},"®":{"ha":847,"x_min":100,"x_max":747,"o":"m 540 763 q 517 770 540 763 q 424 778 493 778 q 307 763 354 778 q 220 709 260 749 q 161 594 181 669 q 142 403 142 518 q 161 212 142 288 q 220 97 181 136 q 307 42 260 57 q 424 28 354 28 q 540 42 493 28 q 627 97 588 57 q 686 212 667 136 q 706 403 706 288 q 686 594 706 518 q 627 709 667 669 q 540 763 588 749 m 672 85 q 635 35 672 85 q 424 -14 597 -14 q 175 85 250 -14 q 100 403 100 183 q 175 721 100 622 q 424 819 250 819 q 672 721 597 819 q 747 403 747 622 q 672 85 747 183 m 433 414 q 448 421 436 415 q 464 429 460 426 q 478 438 468 432 q 493 449 489 444 q 503 462 497 454 q 512 478 510 469 q 514 497 514 488 q 476 553 514 535 q 379 572 438 572 l 335 572 l 335 192 l 293 192 l 293 614 l 379 614 q 510 583 465 614 q 556 497 556 551 q 486 399 556 436 l 583 192 l 538 192 l 433 414 z "},"¯":{"ha":417,"x_min":47,"x_max":353,"o":"m 47 931 l 47 972 l 353 972 l 353 931 l 47 931 z "},"°":{"ha":447,"x_min":85,"x_max":363,"o":"m 224 1029 q 154 1000 182 1029 q 126 932 126 971 q 156 863 126 890 q 224 835 185 835 q 293 864 265 835 q 321 932 321 893 q 292 1001 321 974 q 224 1029 263 1029 m 85 932 q 126 1031 85 992 q 224 1071 168 1071 q 323 1029 283 1071 q 363 932 363 988 q 321 833 363 872 q 224 793 279 793 q 124 835 164 793 q 85 932 85 876 z "},"´":{"ha":319,"x_min":63,"x_max":257,"o":"m 257 1061 l 94 868 l 63 894 l 225 1089 l 257 1061 z "},"·":{"ha":339,"x_min":124,"x_max":215,"o":"m 124 497 l 215 497 l 215 417 l 124 417 l 124 497 z "},"¸":{"ha":236,"x_min":63,"x_max":174,"o":"m 63 -244 q 122 -132 122 -199 l 82 -132 l 82 -51 l 174 -51 q 156 -192 174 -150 q 90 -275 138 -233 l 63 -244 z "},"»":{"ha":600,"x_min":128,"x_max":515,"o":"m 349 486 l 154 324 l 128 356 l 283 486 l 128 617 l 154 649 l 349 486 m 515 486 l 321 324 l 294 356 l 450 486 l 294 617 l 321 649 l 515 486 z "},"¿":{"ha":696,"x_min":78,"x_max":633,"o":"m 450 725 l 358 725 l 358 806 l 450 806 l 450 725 m 425 589 q 402 472 425 525 q 346 384 379 418 q 272 313 313 350 q 199 246 232 276 q 142 170 165 215 q 119 74 119 125 q 139 -40 119 4 q 197 -105 158 -85 q 273 -132 235 -125 q 367 -139 311 -139 q 502 -101 447 -139 q 586 29 557 -64 l 436 142 l 504 142 l 633 44 q 539 -125 604 -69 q 367 -181 474 -181 q 146 -121 214 -181 q 78 74 78 -61 q 101 181 78 132 q 157 263 124 231 q 231 332 190 296 q 304 401 271 368 q 360 482 338 433 q 383 589 383 531 l 425 589 z "},"À":{"ha":758,"x_min":25,"x_max":733,"o":"m 250 1194 l 282 1222 l 444 1028 l 413 1001 l 250 1194 m 163 42 l 674 42 l 379 851 l 69 0 l 25 0 l 379 974 l 733 0 l 163 0 l 163 42 z "},"Á":{"ha":758,"x_min":25,"x_max":733,"o":"m 510 1194 l 347 1001 l 315 1028 l 478 1222 l 510 1194 m 163 42 l 674 42 l 379 851 l 69 0 l 25 0 l 379 974 l 733 0 l 163 0 l 163 42 z "},"Â":{"ha":758,"x_min":25,"x_max":733,"o":"m 379 1200 l 542 1006 l 510 979 l 379 1135 l 249 979 l 217 1006 l 379 1200 m 163 42 l 674 42 l 379 851 l 69 0 l 25 0 l 379 974 l 733 0 l 163 0 l 163 42 z "},"Ã":{"ha":758,"x_min":25,"x_max":733,"o":"m 450 1003 q 376 1036 411 1003 q 314 1069 342 1069 q 275 1051 292 1069 q 258 1003 258 1033 l 217 1003 q 247 1081 217 1051 q 314 1111 276 1111 q 388 1078 353 1111 q 450 1044 422 1044 q 489 1063 472 1044 q 506 1111 506 1081 l 547 1111 q 517 1033 547 1063 q 450 1003 488 1003 m 163 42 l 674 42 l 379 851 l 69 0 l 25 0 l 379 974 l 733 0 l 163 0 l 163 42 z "},"Ä":{"ha":758,"x_min":25,"x_max":733,"o":"m 457 1128 l 549 1128 l 549 1047 l 457 1047 l 457 1128 m 210 1128 l 301 1128 l 301 1047 l 210 1047 l 210 1128 m 163 42 l 674 42 l 379 851 l 69 0 l 25 0 l 379 974 l 733 0 l 163 0 l 163 42 z "},"Å":{"ha":758,"x_min":25,"x_max":733,"o":"m 379 1147 q 335 1128 353 1147 q 317 1085 317 1110 q 335 1040 317 1058 q 379 1022 354 1022 q 424 1041 406 1022 q 442 1085 442 1060 q 423 1129 442 1111 q 379 1147 404 1147 m 379 1182 q 447 1154 418 1182 q 476 1085 476 1126 q 449 1017 476 1046 q 379 988 421 988 q 311 1015 340 988 q 282 1085 282 1043 q 310 1153 282 1124 q 379 1182 338 1182 m 163 42 l 674 42 l 379 851 l 69 0 l 25 0 l 379 974 l 733 0 l 163 0 l 163 42 z "},"Æ":{"ha":1118,"x_min":3,"x_max":1068,"o":"m 954 508 l 542 508 l 967 931 l 497 931 l 497 42 l 1036 42 l 1036 0 l 456 0 l 456 871 l 68 42 l 325 42 l 325 0 l 3 0 l 456 972 l 1068 972 l 643 550 l 954 550 l 954 508 z "},"Ç":{"ha":815,"x_min":107,"x_max":740,"o":"m 372 -244 q 432 -132 432 -199 l 392 -132 l 392 -51 l 483 -51 q 465 -192 483 -150 q 400 -275 447 -233 l 372 -244 m 740 178 q 635 36 703 86 q 431 -14 567 -14 q 183 91 260 -14 q 107 418 107 196 l 107 554 q 183 881 107 776 q 431 986 260 986 q 635 936 567 986 q 740 794 703 886 l 703 776 q 613 901 671 857 q 431 944 554 944 q 314 927 363 944 q 226 868 265 910 q 168 748 188 826 q 149 554 149 669 l 149 418 q 168 224 149 303 q 226 104 188 146 q 314 45 265 63 q 431 28 363 28 q 613 72 554 28 q 703 196 671 115 l 740 178 z "},"È":{"ha":800,"x_min":138,"x_max":750,"o":"m 300 1194 l 332 1222 l 494 1028 l 463 1001 l 300 1194 m 636 508 l 224 508 l 649 931 l 179 931 l 179 42 l 718 42 l 718 0 l 138 0 l 138 972 l 750 972 l 325 550 l 636 550 l 636 508 z "},"É":{"ha":800,"x_min":138,"x_max":750,"o":"m 558 1194 l 396 1001 l 364 1028 l 526 1222 l 558 1194 m 636 508 l 224 508 l 649 931 l 179 931 l 179 42 l 718 42 l 718 0 l 138 0 l 138 972 l 750 972 l 325 550 l 636 550 l 636 508 z "},"Ê":{"ha":800,"x_min":138,"x_max":750,"o":"m 429 1200 l 592 1006 l 560 979 l 429 1135 l 299 979 l 267 1006 l 429 1200 m 636 508 l 224 508 l 649 931 l 179 931 l 179 42 l 718 42 l 718 0 l 138 0 l 138 972 l 750 972 l 325 550 l 636 550 l 636 508 z "},"Ë":{"ha":800,"x_min":138,"x_max":750,"o":"m 507 1128 l 599 1128 l 599 1047 l 507 1047 l 507 1128 m 260 1128 l 351 1128 l 351 1047 l 260 1047 l 260 1128 m 636 508 l 224 508 l 649 931 l 179 931 l 179 42 l 718 42 l 718 0 l 138 0 l 138 972 l 750 972 l 325 550 l 636 550 l 636 508 z "},"Ì":{"ha":317,"x_min":54,"x_max":249,"o":"m 54 1194 l 86 1222 l 249 1028 l 217 1001 l 54 1194 m 179 0 l 138 0 l 138 972 l 179 972 l 179 0 z "},"Í":{"ha":317,"x_min":68,"x_max":263,"o":"m 263 1194 l 100 1001 l 68 1028 l 231 1222 l 263 1194 m 179 0 l 138 0 l 138 972 l 179 972 l 179 0 z "},"Î":{"ha":317,"x_min":-4,"x_max":321,"o":"m 158 1200 l 321 1006 l 289 979 l 158 1135 l 28 979 l -4 1006 l 158 1200 m 179 0 l 138 0 l 138 972 l 179 972 l 179 0 z "},"Ï":{"ha":317,"x_min":-11,"x_max":328,"o":"m 236 1128 l 328 1128 l 328 1047 l 236 1047 l 236 1128 m -11 1128 l 81 1128 l 81 1047 l -11 1047 l -11 1128 m 179 0 l 138 0 l 138 972 l 179 972 l 179 0 z "},"Ð":{"ha":824,"x_min":49,"x_max":749,"o":"m 49 465 l 49 507 l 138 507 l 138 972 l 271 972 q 610 825 471 972 q 749 486 749 678 q 610 147 749 294 q 271 0 471 0 l 138 0 l 138 465 l 49 465 m 271 42 q 580 176 453 42 q 707 486 707 310 q 580 797 707 663 q 271 931 453 931 l 179 931 l 179 507 l 324 507 l 324 465 l 179 465 l 179 42 l 271 42 z "},"Ñ":{"ha":885,"x_min":138,"x_max":747,"o":"m 511 1003 q 438 1036 472 1003 q 375 1069 403 1069 q 336 1051 353 1069 q 319 1003 319 1033 l 278 1003 q 308 1081 278 1051 q 375 1111 338 1111 q 449 1078 414 1111 q 511 1044 483 1044 q 550 1063 533 1044 q 567 1111 567 1081 l 608 1111 q 578 1033 608 1063 q 511 1003 549 1003 m 246 42 l 676 42 l 179 901 l 179 0 l 138 0 l 138 972 l 186 972 l 706 74 l 706 972 l 747 972 l 747 0 l 246 0 l 246 42 z "},"Ò":{"ha":861,"x_min":107,"x_max":754,"o":"m 301 1194 l 333 1222 l 496 1028 l 464 1001 l 301 1194 m 678 91 q 640 39 678 91 q 431 -14 601 -14 q 183 91 260 -14 q 107 418 107 196 l 107 554 q 183 881 107 776 q 431 986 260 986 q 678 881 601 986 q 754 554 754 776 l 754 418 q 678 91 754 196 m 547 927 q 523 936 547 927 q 431 944 499 944 q 314 927 363 944 q 226 868 265 910 q 168 748 188 826 q 149 554 149 669 l 149 418 q 168 224 149 303 q 226 104 188 146 q 314 45 265 63 q 431 28 363 28 q 547 45 499 28 q 635 104 596 63 q 693 224 674 146 q 713 418 713 303 l 713 554 q 693 748 713 669 q 635 868 674 826 q 547 927 596 910 z "},"Ó":{"ha":861,"x_min":107,"x_max":754,"o":"m 560 1194 l 397 1001 l 365 1028 l 528 1222 l 560 1194 m 678 91 q 640 39 678 91 q 431 -14 601 -14 q 183 91 260 -14 q 107 418 107 196 l 107 554 q 183 881 107 776 q 431 986 260 986 q 678 881 601 986 q 754 554 754 776 l 754 418 q 678 91 754 196 m 547 927 q 523 936 547 927 q 431 944 499 944 q 314 927 363 944 q 226 868 265 910 q 168 748 188 826 q 149 554 149 669 l 149 418 q 168 224 149 303 q 226 104 188 146 q 314 45 265 63 q 431 28 363 28 q 547 45 499 28 q 635 104 596 63 q 693 224 674 146 q 713 418 713 303 l 713 554 q 693 748 713 669 q 635 868 674 826 q 547 927 596 910 z "},"Ô":{"ha":861,"x_min":107,"x_max":754,"o":"m 431 1200 l 593 1006 l 561 979 l 431 1135 l 300 979 l 268 1006 l 431 1200 m 678 91 q 640 39 678 91 q 431 -14 601 -14 q 183 91 260 -14 q 107 418 107 196 l 107 554 q 183 881 107 776 q 431 986 260 986 q 678 881 601 986 q 754 554 754 776 l 754 418 q 678 91 754 196 m 547 927 q 523 936 547 927 q 431 944 499 944 q 314 927 363 944 q 226 868 265 910 q 168 748 188 826 q 149 554 149 669 l 149 418 q 168 224 149 303 q 226 104 188 146 q 314 45 265 63 q 431 28 363 28 q 547 45 499 28 q 635 104 596 63 q 693 224 674 146 q 713 418 713 303 l 713 554 q 693 748 713 669 q 635 868 674 826 q 547 927 596 910 z "},"Õ":{"ha":861,"x_min":107,"x_max":754,"o":"m 501 1003 q 428 1036 463 1003 q 365 1069 393 1069 q 326 1051 343 1069 q 310 1003 310 1033 l 268 1003 q 298 1081 268 1051 q 365 1111 328 1111 q 439 1078 404 1111 q 501 1044 474 1044 q 540 1063 524 1044 q 557 1111 557 1081 l 599 1111 q 569 1033 599 1063 q 501 1003 539 1003 m 678 91 q 640 39 678 91 q 431 -14 601 -14 q 183 91 260 -14 q 107 418 107 196 l 107 554 q 183 881 107 776 q 431 986 260 986 q 678 881 601 986 q 754 554 754 776 l 754 418 q 678 91 754 196 m 547 927 q 523 936 547 927 q 431 944 499 944 q 314 927 363 944 q 226 868 265 910 q 168 748 188 826 q 149 554 149 669 l 149 418 q 168 224 149 303 q 226 104 188 146 q 314 45 265 63 q 431 28 363 28 q 547 45 499 28 q 635 104 596 63 q 693 224 674 146 q 713 418 713 303 l 713 554 q 693 748 713 669 q 635 868 674 826 q 547 927 596 910 z "},"Ö":{"ha":861,"x_min":107,"x_max":754,"o":"m 508 1128 l 600 1128 l 600 1047 l 508 1047 l 508 1128 m 261 1128 l 353 1128 l 353 1047 l 261 1047 l 261 1128 m 678 91 q 640 39 678 91 q 431 -14 601 -14 q 183 91 260 -14 q 107 418 107 196 l 107 554 q 183 881 107 776 q 431 986 260 986 q 678 881 601 986 q 754 554 754 776 l 754 418 q 678 91 754 196 m 547 927 q 523 936 547 927 q 431 944 499 944 q 314 927 363 944 q 226 868 265 910 q 168 748 188 826 q 149 554 149 669 l 149 418 q 168 224 149 303 q 226 104 188 146 q 314 45 265 63 q 431 28 363 28 q 547 45 499 28 q 635 104 596 63 q 693 224 674 146 q 713 418 713 303 l 713 554 q 693 748 713 669 q 635 868 674 826 q 547 927 596 910 z "},"×":{"ha":665,"x_min":113,"x_max":553,"o":"m 113 538 l 143 567 l 332 376 l 522 567 l 553 538 l 363 347 l 553 157 l 522 128 l 332 318 l 143 128 l 113 157 l 303 347 l 113 538 z "},"Ø":{"ha":861,"x_min":107,"x_max":754,"o":"m 431 944 q 314 927 363 944 q 226 868 265 910 q 168 748 188 826 q 149 554 149 669 l 149 418 q 246 83 149 168 l 581 913 q 431 944 524 944 m 236 -50 l 199 -35 l 231 43 q 107 418 107 139 l 107 554 q 183 881 107 776 q 431 986 260 986 q 596 951 531 986 l 625 1022 l 663 1007 l 631 929 q 754 554 754 833 l 754 418 q 678 91 754 196 q 431 -14 601 -14 q 265 21 331 -14 l 236 -50 m 615 889 l 281 60 q 431 28 338 28 q 547 45 499 28 q 635 104 596 63 q 693 224 674 146 q 713 418 713 303 l 713 554 q 615 889 713 804 z "},"Ù":{"ha":897,"x_min":125,"x_max":772,"o":"m 772 972 l 772 418 q 696 91 772 196 q 449 -14 619 -14 q 201 91 278 -14 q 125 418 125 196 l 125 972 l 167 972 l 167 418 q 186 224 167 303 q 244 104 206 146 q 332 45 283 63 q 449 28 381 28 q 565 45 517 28 q 653 104 614 63 q 711 224 692 146 q 731 418 731 303 l 731 972 l 772 972 m 319 1194 l 351 1222 l 514 1028 l 482 1001 l 319 1194 z "},"Ú":{"ha":897,"x_min":125,"x_max":772,"o":"m 772 972 l 772 418 q 696 91 772 196 q 449 -14 619 -14 q 201 91 278 -14 q 125 418 125 196 l 125 972 l 167 972 l 167 418 q 186 224 167 303 q 244 104 206 146 q 332 45 283 63 q 449 28 381 28 q 565 45 517 28 q 653 104 614 63 q 711 224 692 146 q 731 418 731 303 l 731 972 l 772 972 m 578 1194 l 415 1001 l 383 1028 l 546 1222 l 578 1194 z "},"Û":{"ha":897,"x_min":125,"x_max":772,"o":"m 772 972 l 772 418 q 696 91 772 196 q 449 -14 619 -14 q 201 91 278 -14 q 125 418 125 196 l 125 972 l 167 972 l 167 418 q 186 224 167 303 q 244 104 206 146 q 332 45 283 63 q 449 28 381 28 q 565 45 517 28 q 653 104 614 63 q 711 224 692 146 q 731 418 731 303 l 731 972 l 772 972 m 449 1200 l 611 1006 l 579 979 l 449 1135 l 318 979 l 286 1006 l 449 1200 z "},"Ü":{"ha":897,"x_min":125,"x_max":772,"o":"m 772 972 l 772 418 q 696 91 772 196 q 449 -14 619 -14 q 201 91 278 -14 q 125 418 125 196 l 125 972 l 167 972 l 167 418 q 186 224 167 303 q 244 104 206 146 q 332 45 283 63 q 449 28 381 28 q 565 45 517 28 q 653 104 614 63 q 711 224 692 146 q 731 418 731 303 l 731 972 l 772 972 m 526 1128 l 618 1128 l 618 1047 l 526 1047 l 526 1128 m 279 1128 l 371 1128 l 371 1047 l 279 1047 l 279 1128 z "},"Ý":{"ha":758,"x_min":11,"x_max":747,"o":"m 747 972 l 400 417 l 400 0 l 358 0 l 358 417 l 11 972 l 60 972 l 379 463 l 699 972 l 747 972 m 514 1194 l 351 1001 l 319 1028 l 482 1222 l 514 1194 z "},"Þ":{"ha":733,"x_min":138,"x_max":676,"o":"m 138 972 l 179 972 l 179 764 l 307 764 q 583 697 490 764 q 676 507 676 629 q 583 317 676 385 q 307 250 490 250 l 179 250 l 179 0 l 138 0 l 138 972 m 179 722 l 179 292 l 307 292 q 635 507 635 292 q 307 722 635 722 l 179 722 z "},"ß":{"ha":811,"x_min":132,"x_max":749,"o":"m 350 972 l 431 972 q 537 935 500 972 q 574 840 574 897 q 548 781 574 807 q 485 740 522 756 q 412 709 449 725 q 349 667 375 693 q 324 608 324 642 q 367 502 324 542 q 474 442 411 463 q 599 398 536 421 q 705 324 661 375 q 749 192 749 274 q 688 40 749 99 q 529 -18 628 -18 q 384 1 456 -18 q 278 58 313 21 l 306 89 q 524 24 376 24 q 659 74 611 24 q 707 190 707 125 q 663 303 707 260 q 557 367 619 346 q 432 412 494 389 q 326 483 369 435 q 282 611 282 532 q 321 699 282 663 q 407 751 360 735 q 493 791 454 768 q 532 840 532 814 q 508 904 532 878 q 431 931 483 931 l 350 931 q 224 865 275 931 q 174 656 174 799 l 174 0 l 132 0 l 132 656 q 190 890 132 808 q 350 972 247 972 z "},"à":{"ha":747,"x_min":26,"x_max":721,"o":"m 244 1061 l 276 1089 l 439 894 l 407 868 l 244 1061 m 206 42 l 658 42 l 374 713 l 71 0 l 26 0 l 374 819 l 721 0 l 206 0 l 206 42 z "},"á":{"ha":747,"x_min":26,"x_max":721,"o":"m 503 1061 l 340 868 l 308 894 l 471 1089 l 503 1061 m 206 42 l 658 42 l 374 713 l 71 0 l 26 0 l 374 819 l 721 0 l 206 0 l 206 42 z "},"â":{"ha":747,"x_min":26,"x_max":721,"o":"m 374 1089 l 536 894 l 504 868 l 374 1024 l 243 868 l 211 894 l 374 1089 m 206 42 l 658 42 l 374 713 l 71 0 l 26 0 l 374 819 l 721 0 l 206 0 l 206 42 z "},"ã":{"ha":747,"x_min":26,"x_max":721,"o":"m 444 864 q 371 897 406 864 q 308 931 336 931 q 269 913 286 931 q 253 864 253 894 l 211 864 q 241 942 211 913 q 308 972 271 972 q 382 939 347 972 q 444 906 417 906 q 483 924 467 906 q 500 972 500 942 l 542 972 q 512 894 542 924 q 444 864 482 864 m 206 42 l 658 42 l 374 713 l 71 0 l 26 0 l 374 819 l 721 0 l 206 0 l 206 42 z "},"ä":{"ha":747,"x_min":26,"x_max":721,"o":"m 451 989 l 543 989 l 543 908 l 451 908 l 451 989 m 204 989 l 296 989 l 296 908 l 204 908 l 204 989 m 206 42 l 658 42 l 374 713 l 71 0 l 26 0 l 374 819 l 721 0 l 206 0 l 206 42 z "},"å":{"ha":747,"x_min":26,"x_max":721,"o":"m 374 1036 q 329 1017 347 1036 q 311 974 311 999 q 330 929 311 947 q 374 911 349 911 q 418 930 400 911 q 436 974 436 949 q 417 1018 436 1000 q 374 1036 399 1036 m 374 1071 q 442 1043 413 1071 q 471 974 471 1015 q 443 906 471 935 q 374 876 415 876 q 306 904 335 876 q 276 974 276 932 q 304 1042 276 1013 q 374 1071 332 1071 m 206 42 l 658 42 l 374 713 l 71 0 l 26 0 l 374 819 l 721 0 l 206 0 l 206 42 z "},"æ":{"ha":1053,"x_min":14,"x_max":986,"o":"m 963 82 q 713 -14 886 -14 q 464 85 539 -14 q 389 403 389 183 l 389 707 l 79 42 l 331 42 l 331 0 l 14 0 l 389 806 l 431 806 l 431 664 q 713 819 499 819 q 986 688 914 819 l 646 403 l 581 403 l 932 696 q 713 778 871 778 q 596 763 643 778 q 509 709 549 749 q 450 594 469 669 q 431 403 431 518 q 450 212 431 288 q 509 97 469 136 q 596 42 549 57 q 713 28 643 28 q 932 110 871 28 l 963 82 z "},"ç":{"ha":746,"x_min":97,"x_max":671,"o":"m 356 -244 q 415 -132 415 -199 l 375 -132 l 375 -51 l 467 -51 q 449 -192 467 -150 q 383 -275 431 -233 l 356 -244 m 172 85 q 135 134 172 85 q 97 403 97 183 q 172 721 97 622 q 421 819 247 819 q 671 724 594 819 l 640 696 q 421 778 579 778 q 304 763 351 778 q 217 709 257 749 q 158 594 178 669 q 139 403 139 518 q 158 212 139 288 q 217 97 178 136 q 304 42 257 57 q 421 28 351 28 q 640 110 579 28 l 671 82 q 421 -14 594 -14 q 172 85 247 -14 z "},"è":{"ha":761,"x_min":97,"x_max":694,"o":"m 276 1061 l 308 1089 l 471 894 l 439 868 l 276 1061 m 671 82 q 421 -14 594 -14 q 172 85 247 -14 q 97 403 97 183 q 172 721 97 622 q 421 819 247 819 q 694 688 622 819 l 354 403 l 289 403 l 640 696 q 421 778 579 778 q 304 763 351 778 q 217 709 257 749 q 158 594 178 669 q 139 403 139 518 q 158 212 139 288 q 217 97 178 136 q 304 42 257 57 q 421 28 351 28 q 640 110 579 28 l 671 82 z "},"é":{"ha":761,"x_min":97,"x_max":694,"o":"m 535 1061 l 372 868 l 340 894 l 503 1089 l 535 1061 m 671 82 q 421 -14 594 -14 q 172 85 247 -14 q 97 403 97 183 q 172 721 97 622 q 421 819 247 819 q 694 688 622 819 l 354 403 l 289 403 l 640 696 q 421 778 579 778 q 304 763 351 778 q 217 709 257 749 q 158 594 178 669 q 139 403 139 518 q 158 212 139 288 q 217 97 178 136 q 304 42 257 57 q 421 28 351 28 q 640 110 579 28 l 671 82 z "},"ê":{"ha":761,"x_min":97,"x_max":694,"o":"m 406 1089 l 568 894 l 536 868 l 406 1024 l 275 868 l 243 894 l 406 1089 m 671 82 q 421 -14 594 -14 q 172 85 247 -14 q 97 403 97 183 q 172 721 97 622 q 421 819 247 819 q 694 688 622 819 l 354 403 l 289 403 l 640 696 q 421 778 579 778 q 304 763 351 778 q 217 709 257 749 q 158 594 178 669 q 139 403 139 518 q 158 212 139 288 q 217 97 178 136 q 304 42 257 57 q 421 28 351 28 q 640 110 579 28 l 671 82 z "},"ë":{"ha":761,"x_min":97,"x_max":694,"o":"m 483 989 l 575 989 l 575 908 l 483 908 l 483 989 m 236 989 l 328 989 l 328 908 l 236 908 l 236 989 m 671 82 q 421 -14 594 -14 q 172 85 247 -14 q 97 403 97 183 q 172 721 97 622 q 421 819 247 819 q 694 688 622 819 l 354 403 l 289 403 l 640 696 q 421 778 579 778 q 304 763 351 778 q 217 709 257 749 q 158 594 178 669 q 139 403 139 518 q 158 212 139 288 q 217 97 178 136 q 304 42 257 57 q 421 28 351 28 q 640 110 579 28 l 671 82 z "},"ì":{"ha":306,"x_min":49,"x_max":243,"o":"m 49 1061 l 81 1089 l 243 894 l 211 868 l 49 1061 m 132 806 l 174 806 l 174 0 l 132 0 l 132 806 z "},"í":{"ha":306,"x_min":63,"x_max":257,"o":"m 257 1061 l 94 868 l 63 894 l 225 1089 l 257 1061 m 132 806 l 174 806 l 174 0 l 132 0 l 132 806 z "},"î":{"ha":306,"x_min":-10,"x_max":315,"o":"m 153 1089 l 315 894 l 283 868 l 153 1024 l 22 868 l -10 894 l 153 1089 m 132 806 l 174 806 l 174 0 l 132 0 l 132 806 z "},"ï":{"ha":306,"x_min":-17,"x_max":322,"o":"m 231 989 l 322 989 l 322 908 l 231 908 l 231 989 m -17 989 l 75 989 l 75 908 l -17 908 l -17 989 m 132 806 l 174 806 l 174 0 l 132 0 l 132 806 z "},"ð":{"ha":810,"x_min":81,"x_max":728,"o":"m 728 333 q 404 -14 728 -14 q 81 333 81 -14 q 404 681 81 681 q 535 663 481 681 l 385 840 l 294 764 l 267 796 l 358 872 l 282 964 l 314 992 l 390 900 l 478 972 l 504 940 l 418 867 l 649 590 q 728 333 728 494 m 686 333 q 686 486 686 333 q 404 639 686 639 q 122 333 122 639 q 404 28 122 28 q 686 333 686 28 z "},"ñ":{"ha":800,"x_min":132,"x_max":668,"o":"m 471 864 q 397 897 432 864 q 335 931 363 931 q 296 913 313 931 q 279 864 279 894 l 238 864 q 267 942 238 913 q 335 972 297 972 q 408 939 374 972 q 471 906 443 906 q 510 924 493 906 q 526 972 526 942 l 568 972 q 538 894 568 924 q 471 864 508 864 m 132 0 l 132 806 l 174 806 l 626 76 l 626 806 l 668 806 l 668 0 l 626 0 l 174 731 l 174 0 l 132 0 z "},"ò":{"ha":842,"x_min":97,"x_max":744,"o":"m 292 1061 l 324 1089 l 486 894 l 454 868 l 292 1061 m 538 763 q 514 770 538 763 q 421 778 490 778 q 304 763 351 778 q 217 709 257 749 q 158 594 178 669 q 139 403 139 518 q 158 212 139 288 q 217 97 178 136 q 304 42 257 57 q 421 28 351 28 q 538 42 490 28 q 624 97 585 57 q 683 212 664 136 q 703 403 703 288 q 683 594 703 518 q 624 709 664 669 q 538 763 585 749 m 669 85 q 632 35 669 85 q 421 -14 594 -14 q 172 85 247 -14 q 97 403 97 183 q 172 721 97 622 q 421 819 247 819 q 669 721 594 819 q 744 403 744 622 q 669 85 744 183 z "},"ó":{"ha":842,"x_min":97,"x_max":744,"o":"m 550 1061 l 388 868 l 356 894 l 518 1089 l 550 1061 m 538 763 q 514 770 538 763 q 421 778 490 778 q 304 763 351 778 q 217 709 257 749 q 158 594 178 669 q 139 403 139 518 q 158 212 139 288 q 217 97 178 136 q 304 42 257 57 q 421 28 351 28 q 538 42 490 28 q 624 97 585 57 q 683 212 664 136 q 703 403 703 288 q 683 594 703 518 q 624 709 664 669 q 538 763 585 749 m 669 85 q 632 35 669 85 q 421 -14 594 -14 q 172 85 247 -14 q 97 403 97 183 q 172 721 97 622 q 421 819 247 819 q 669 721 594 819 q 744 403 744 622 q 669 85 744 183 z "},"ô":{"ha":842,"x_min":97,"x_max":744,"o":"m 421 1089 l 583 894 l 551 868 l 421 1024 l 290 868 l 258 894 l 421 1089 m 538 763 q 514 770 538 763 q 421 778 490 778 q 304 763 351 778 q 217 709 257 749 q 158 594 178 669 q 139 403 139 518 q 158 212 139 288 q 217 97 178 136 q 304 42 257 57 q 421 28 351 28 q 538 42 490 28 q 624 97 585 57 q 683 212 664 136 q 703 403 703 288 q 683 594 703 518 q 624 709 664 669 q 538 763 585 749 m 669 85 q 632 35 669 85 q 421 -14 594 -14 q 172 85 247 -14 q 97 403 97 183 q 172 721 97 622 q 421 819 247 819 q 669 721 594 819 q 744 403 744 622 q 669 85 744 183 z "},"õ":{"ha":842,"x_min":97,"x_max":744,"o":"m 492 864 q 418 897 453 864 q 356 931 383 931 q 317 913 333 931 q 300 864 300 894 l 258 864 q 288 942 258 913 q 356 972 318 972 q 429 939 394 972 q 492 906 464 906 q 531 924 514 906 q 547 972 547 942 l 589 972 q 559 894 589 924 q 492 864 529 864 m 538 763 q 514 770 538 763 q 421 778 490 778 q 304 763 351 778 q 217 709 257 749 q 158 594 178 669 q 139 403 139 518 q 158 212 139 288 q 217 97 178 136 q 304 42 257 57 q 421 28 351 28 q 538 42 490 28 q 624 97 585 57 q 683 212 664 136 q 703 403 703 288 q 683 594 703 518 q 624 709 664 669 q 538 763 585 749 m 669 85 q 632 35 669 85 q 421 -14 594 -14 q 172 85 247 -14 q 97 403 97 183 q 172 721 97 622 q 421 819 247 819 q 669 721 594 819 q 744 403 744 622 q 669 85 744 183 z "},"ö":{"ha":842,"x_min":97,"x_max":744,"o":"m 499 989 l 590 989 l 590 908 l 499 908 l 499 989 m 251 989 l 343 989 l 343 908 l 251 908 l 251 989 m 538 763 q 514 770 538 763 q 421 778 490 778 q 304 763 351 778 q 217 709 257 749 q 158 594 178 669 q 139 403 139 518 q 158 212 139 288 q 217 97 178 136 q 304 42 257 57 q 421 28 351 28 q 538 42 490 28 q 624 97 585 57 q 683 212 664 136 q 703 403 703 288 q 683 594 703 518 q 624 709 664 669 q 538 763 585 749 m 669 85 q 632 35 669 85 q 421 -14 594 -14 q 172 85 247 -14 q 97 403 97 183 q 172 721 97 622 q 421 819 247 819 q 669 721 594 819 q 744 403 744 622 q 669 85 744 183 z "},"÷":{"ha":675,"x_min":121,"x_max":554,"o":"m 292 532 l 383 532 l 383 451 l 292 451 l 292 532 m 121 326 l 121 368 l 554 368 l 554 326 l 121 326 m 292 243 l 383 243 l 383 163 l 292 163 l 292 243 z "},"ø":{"ha":842,"x_min":97,"x_max":744,"o":"m 421 778 q 304 763 351 778 q 217 709 257 749 q 158 594 178 669 q 139 403 139 518 q 254 65 139 138 l 538 764 q 421 778 494 778 m 247 -61 l 210 -46 l 239 26 q 97 403 97 107 q 172 721 97 622 q 421 819 247 819 q 553 801 499 819 l 588 889 l 625 874 l 590 786 q 708 653 671 746 q 744 403 744 560 q 669 85 744 183 q 421 -14 594 -14 q 275 8 333 -14 l 247 -61 m 575 749 l 290 47 q 421 28 343 28 q 538 42 490 28 q 624 97 585 57 q 683 212 664 136 q 703 403 703 288 q 575 749 703 682 z "},"ù":{"ha":814,"x_min":118,"x_max":696,"o":"m 278 1061 l 310 1089 l 472 894 l 440 868 l 278 1061 m 160 806 l 160 403 q 226 112 160 196 q 407 28 292 28 q 588 112 522 28 q 654 403 654 196 l 654 806 l 696 806 l 696 403 q 407 -14 696 -14 q 118 403 118 -14 l 118 806 l 160 806 z "},"ú":{"ha":814,"x_min":118,"x_max":696,"o":"m 536 1061 l 374 868 l 342 894 l 504 1089 l 536 1061 m 160 806 l 160 403 q 226 112 160 196 q 407 28 292 28 q 588 112 522 28 q 654 403 654 196 l 654 806 l 696 806 l 696 403 q 407 -14 696 -14 q 118 403 118 -14 l 118 806 l 160 806 z "},"û":{"ha":814,"x_min":118,"x_max":696,"o":"m 407 1089 l 569 894 l 538 868 l 407 1024 l 276 868 l 244 894 l 407 1089 m 160 806 l 160 403 q 226 112 160 196 q 407 28 292 28 q 588 112 522 28 q 654 403 654 196 l 654 806 l 696 806 l 696 403 q 407 -14 696 -14 q 118 403 118 -14 l 118 806 l 160 806 z "},"ü":{"ha":814,"x_min":118,"x_max":696,"o":"m 485 989 l 576 989 l 576 908 l 485 908 l 485 989 m 238 989 l 329 989 l 329 908 l 238 908 l 238 989 m 160 806 l 160 403 q 226 112 160 196 q 407 28 292 28 q 588 112 522 28 q 654 403 654 196 l 654 806 l 696 806 l 696 403 q 407 -14 696 -14 q 118 403 118 -14 l 118 806 l 160 806 z "},"ý":{"ha":742,"x_min":24,"x_max":718,"o":"m 718 806 l 392 35 l 392 -278 l 350 -278 l 350 35 l 24 806 l 68 806 l 371 93 l 674 806 l 718 806 m 500 1061 l 338 868 l 306 894 l 468 1089 l 500 1061 z "},"þ":{"ha":751,"x_min":132,"x_max":671,"o":"m 671 447 q 567 192 671 304 q 301 35 464 79 l 174 0 l 174 -278 l 132 -278 l 132 972 l 174 972 l 174 758 l 301 800 q 413 819 364 819 q 605 722 539 819 q 671 447 671 624 m 174 717 l 174 42 l 301 76 q 533 216 436 113 q 629 447 629 319 q 566 698 629 618 q 396 778 503 778 q 301 758 360 778 l 174 717 z "},"ÿ":{"ha":742,"x_min":24,"x_max":718,"o":"m 718 806 l 392 35 l 392 -278 l 350 -278 l 350 35 l 24 806 l 68 806 l 371 93 l 674 806 l 718 806 m 449 989 l 540 989 l 540 908 l 449 908 l 449 989 m 201 989 l 293 989 l 293 908 l 201 908 l 201 989 z "},"Ā":{"ha":758,"x_min":25,"x_max":733,"o":"m 163 42 l 674 42 l 379 851 l 69 0 l 25 0 l 379 974 l 733 0 l 163 0 l 163 42 m 226 1069 l 226 1111 l 532 1111 l 532 1069 l 226 1069 z "},"ā":{"ha":747,"x_min":26,"x_max":721,"o":"m 228 931 l 228 972 l 533 972 l 533 931 l 228 931 m 206 42 l 658 42 l 374 713 l 71 0 l 26 0 l 374 819 l 721 0 l 206 0 l 206 42 z "},"Ă":{"ha":758,"x_min":25,"x_max":733,"o":"m 518 1138 q 476 1038 518 1078 q 379 999 435 999 q 280 1040 319 999 q 240 1138 240 1082 l 282 1138 q 311 1068 282 1096 q 379 1040 340 1040 q 449 1069 421 1040 q 476 1138 476 1099 l 518 1138 m 163 42 l 674 42 l 379 851 l 69 0 l 25 0 l 379 974 l 733 0 l 163 0 l 163 42 z "},"ă":{"ha":747,"x_min":26,"x_max":721,"o":"m 513 999 q 471 899 513 939 q 374 860 429 860 q 274 901 314 860 q 235 999 235 943 l 276 999 q 306 929 276 957 q 374 901 335 901 q 443 931 415 901 q 471 999 471 960 l 513 999 m 206 42 l 658 42 l 374 713 l 71 0 l 26 0 l 374 819 l 721 0 l 206 0 l 206 42 z "},"Ą":{"ha":758,"x_min":25,"x_max":733,"o":"m 163 42 l 674 42 l 379 851 l 69 0 l 25 0 l 379 974 l 733 0 l 635 0 q 578 -106 578 -36 q 614 -194 578 -158 q 703 -231 650 -231 l 703 -272 q 585 -224 633 -272 q 536 -106 536 -175 q 574 0 536 -46 l 163 0 l 163 42 z "},"ą":{"ha":747,"x_min":26,"x_max":721,"o":"m 206 42 l 658 42 l 374 713 l 71 0 l 26 0 l 374 819 l 721 0 l 619 0 q 563 -106 563 -36 q 599 -194 563 -158 q 688 -231 636 -231 l 688 -272 q 570 -224 619 -272 q 521 -106 521 -175 q 558 0 521 -46 l 206 0 l 206 42 z "},"Ć":{"ha":815,"x_min":107,"x_max":740,"o":"m 546 1194 l 383 1001 l 351 1028 l 514 1222 l 546 1194 m 740 178 q 635 36 703 86 q 431 -14 567 -14 q 183 91 260 -14 q 107 418 107 196 l 107 554 q 183 881 107 776 q 431 986 260 986 q 635 936 567 986 q 740 794 703 886 l 703 776 q 613 901 671 857 q 431 944 554 944 q 314 927 363 944 q 226 868 265 910 q 168 748 188 826 q 149 554 149 669 l 149 418 q 168 224 149 303 q 226 104 188 146 q 314 45 265 63 q 431 28 363 28 q 613 72 554 28 q 703 196 671 115 l 740 178 z "},"ć":{"ha":746,"x_min":97,"x_max":671,"o":"m 542 1061 l 379 868 l 347 894 l 510 1089 l 542 1061 m 172 85 q 135 134 172 85 q 97 403 97 183 q 172 721 97 622 q 421 819 247 819 q 671 724 594 819 l 640 696 q 421 778 579 778 q 304 763 351 778 q 217 709 257 749 q 158 594 178 669 q 139 403 139 518 q 158 212 139 288 q 217 97 178 136 q 304 42 257 57 q 421 28 351 28 q 640 110 579 28 l 671 82 q 421 -14 594 -14 q 172 85 247 -14 z "},"Ĉ":{"ha":815,"x_min":107,"x_max":740,"o":"m 433 1200 l 596 1006 l 564 979 l 433 1135 l 303 979 l 271 1006 l 433 1200 m 740 178 q 635 36 703 86 q 431 -14 567 -14 q 183 91 260 -14 q 107 418 107 196 l 107 554 q 183 881 107 776 q 431 986 260 986 q 635 936 567 986 q 740 794 703 886 l 703 776 q 613 901 671 857 q 431 944 554 944 q 314 927 363 944 q 226 868 265 910 q 168 748 188 826 q 149 554 149 669 l 149 418 q 168 224 149 303 q 226 104 188 146 q 314 45 265 63 q 431 28 363 28 q 613 72 554 28 q 703 196 671 115 l 740 178 z "},"ĉ":{"ha":746,"x_min":97,"x_max":671,"o":"m 406 1089 l 568 894 l 536 868 l 406 1024 l 275 868 l 243 894 l 406 1089 m 172 85 q 135 134 172 85 q 97 403 97 183 q 172 721 97 622 q 421 819 247 819 q 671 724 594 819 l 640 696 q 421 778 579 778 q 304 763 351 778 q 217 709 257 749 q 158 594 178 669 q 139 403 139 518 q 158 212 139 288 q 217 97 178 136 q 304 42 257 57 q 421 28 351 28 q 640 110 579 28 l 671 82 q 421 -14 594 -14 q 172 85 247 -14 z "},"Ċ":{"ha":815,"x_min":107,"x_max":740,"o":"m 389 1128 l 481 1128 l 481 1047 l 389 1047 l 389 1128 m 740 178 q 635 36 703 86 q 431 -14 567 -14 q 183 91 260 -14 q 107 418 107 196 l 107 554 q 183 881 107 776 q 431 986 260 986 q 635 936 567 986 q 740 794 703 886 l 703 776 q 613 901 671 857 q 431 944 554 944 q 314 927 363 944 q 226 868 265 910 q 168 748 188 826 q 149 554 149 669 l 149 418 q 168 224 149 303 q 226 104 188 146 q 314 45 265 63 q 431 28 363 28 q 613 72 554 28 q 703 196 671 115 l 740 178 z "},"ċ":{"ha":746,"x_min":97,"x_max":671,"o":"m 374 989 l 465 989 l 465 908 l 374 908 l 374 989 m 172 85 q 135 134 172 85 q 97 403 97 183 q 172 721 97 622 q 421 819 247 819 q 671 724 594 819 l 640 696 q 421 778 579 778 q 304 763 351 778 q 217 709 257 749 q 158 594 178 669 q 139 403 139 518 q 158 212 139 288 q 217 97 178 136 q 304 42 257 57 q 421 28 351 28 q 640 110 579 28 l 671 82 q 421 -14 594 -14 q 172 85 247 -14 z "},"Č":{"ha":815,"x_min":107,"x_max":740,"o":"m 440 988 l 278 1182 l 310 1208 l 440 1053 l 571 1208 l 603 1182 l 440 988 m 740 178 q 635 36 703 86 q 431 -14 567 -14 q 183 91 260 -14 q 107 418 107 196 l 107 554 q 183 881 107 776 q 431 986 260 986 q 635 936 567 986 q 740 794 703 886 l 703 776 q 613 901 671 857 q 431 944 554 944 q 314 927 363 944 q 226 868 265 910 q 168 748 188 826 q 149 554 149 669 l 149 418 q 168 224 149 303 q 226 104 188 146 q 314 45 265 63 q 431 28 363 28 q 613 72 554 28 q 703 196 671 115 l 740 178 z "},"č":{"ha":746,"x_min":97,"x_max":671,"o":"m 419 835 l 257 1029 l 289 1056 l 419 900 l 550 1056 l 582 1029 l 419 835 m 172 85 q 135 134 172 85 q 97 403 97 183 q 172 721 97 622 q 421 819 247 819 q 671 724 594 819 l 640 696 q 421 778 579 778 q 304 763 351 778 q 217 709 257 749 q 158 594 178 669 q 139 403 139 518 q 158 212 139 288 q 217 97 178 136 q 304 42 257 57 q 421 28 351 28 q 640 110 579 28 l 671 82 q 421 -14 594 -14 q 172 85 247 -14 z "},"Ď":{"ha":824,"x_min":138,"x_max":749,"o":"m 354 988 l 192 1182 l 224 1208 l 354 1053 l 485 1208 l 517 1182 l 354 988 m 271 0 l 138 0 l 138 972 l 271 972 q 610 825 471 972 q 749 486 749 678 q 610 147 749 294 q 271 0 471 0 m 271 42 q 580 176 453 42 q 707 486 707 310 q 580 797 707 663 q 271 931 453 931 l 179 931 l 179 42 l 271 42 z "},"ď":{"ha":768,"x_min":132,"x_max":688,"o":"m 340 835 l 178 1029 l 210 1056 l 340 900 l 471 1056 l 503 1029 l 340 835 m 238 0 l 132 0 l 132 806 l 238 806 q 565 697 443 806 q 688 403 688 589 q 565 108 688 217 q 238 0 443 0 m 238 42 q 535 138 425 42 q 646 403 646 233 q 535 668 646 572 q 238 764 425 764 l 174 764 l 174 42 l 238 42 z "},"Đ":{"ha":824,"x_min":49,"x_max":749,"o":"m 271 42 q 580 176 453 42 q 707 486 707 310 q 580 797 707 663 q 271 931 453 931 l 179 931 l 179 507 l 324 507 l 324 465 l 179 465 l 179 42 l 271 42 m 271 0 l 138 0 l 138 465 l 49 465 l 49 507 l 138 507 l 138 972 l 271 972 q 610 825 471 972 q 749 486 749 678 q 610 147 749 294 q 271 0 471 0 z "},"đ":{"ha":799,"x_min":50,"x_max":718,"o":"m 50 394 l 50 436 l 163 436 l 163 806 l 268 806 q 596 697 474 806 q 718 403 718 589 q 596 108 718 217 q 268 0 474 0 l 163 0 l 163 394 l 50 394 m 268 42 q 566 138 456 42 q 676 403 676 233 q 566 668 676 572 q 268 764 456 764 l 204 764 l 204 436 l 325 436 l 325 394 l 204 394 l 204 42 l 268 42 z "},"Ē":{"ha":800,"x_min":138,"x_max":750,"o":"m 268 1069 l 268 1111 l 574 1111 l 574 1069 l 268 1069 m 636 508 l 224 508 l 649 931 l 179 931 l 179 42 l 718 42 l 718 0 l 138 0 l 138 972 l 750 972 l 325 550 l 636 550 l 636 508 z "},"ē":{"ha":761,"x_min":97,"x_max":694,"o":"m 250 931 l 250 972 l 556 972 l 556 931 l 250 931 m 671 82 q 421 -14 594 -14 q 172 85 247 -14 q 97 403 97 183 q 172 721 97 622 q 421 819 247 819 q 694 688 622 819 l 354 403 l 289 403 l 640 696 q 421 778 579 778 q 304 763 351 778 q 217 709 257 749 q 158 594 178 669 q 139 403 139 518 q 158 212 139 288 q 217 97 178 136 q 304 42 257 57 q 421 28 351 28 q 640 110 579 28 l 671 82 z "},"Ĕ":{"ha":800,"x_min":138,"x_max":750,"o":"m 558 1138 q 517 1038 558 1078 q 419 999 475 999 q 320 1040 360 999 q 281 1138 281 1082 l 322 1138 q 351 1068 322 1096 q 419 1040 381 1040 q 489 1069 461 1040 q 517 1138 517 1099 l 558 1138 m 636 508 l 224 508 l 649 931 l 179 931 l 179 42 l 718 42 l 718 0 l 138 0 l 138 972 l 750 972 l 325 550 l 636 550 l 636 508 z "},"ĕ":{"ha":761,"x_min":97,"x_max":694,"o":"m 542 999 q 500 899 542 939 q 403 860 458 860 q 303 901 343 860 q 264 999 264 943 l 306 999 q 335 929 306 957 q 403 901 364 901 q 472 931 444 901 q 500 999 500 960 l 542 999 m 671 82 q 421 -14 594 -14 q 172 85 247 -14 q 97 403 97 183 q 172 721 97 622 q 421 819 247 819 q 694 688 622 819 l 354 403 l 289 403 l 640 696 q 421 778 579 778 q 304 763 351 778 q 217 709 257 749 q 158 594 178 669 q 139 403 139 518 q 158 212 139 288 q 217 97 178 136 q 304 42 257 57 q 421 28 351 28 q 640 110 579 28 l 671 82 z "},"Ė":{"ha":800,"x_min":138,"x_max":750,"o":"m 372 1128 l 464 1128 l 464 1047 l 372 1047 l 372 1128 m 636 508 l 224 508 l 649 931 l 179 931 l 179 42 l 718 42 l 718 0 l 138 0 l 138 972 l 750 972 l 325 550 l 636 550 l 636 508 z "},"ė":{"ha":761,"x_min":97,"x_max":694,"o":"m 374 989 l 465 989 l 465 908 l 374 908 l 374 989 m 671 82 q 421 -14 594 -14 q 172 85 247 -14 q 97 403 97 183 q 172 721 97 622 q 421 819 247 819 q 694 688 622 819 l 354 403 l 289 403 l 640 696 q 421 778 579 778 q 304 763 351 778 q 217 709 257 749 q 158 594 178 669 q 139 403 139 518 q 158 212 139 288 q 217 97 178 136 q 304 42 257 57 q 421 28 351 28 q 640 110 579 28 l 671 82 z "},"Ę":{"ha":800,"x_min":138,"x_max":753,"o":"m 636 508 l 224 508 l 649 931 l 179 931 l 179 42 l 718 42 l 718 0 l 685 0 q 628 -106 628 -36 q 664 -194 628 -158 q 753 -231 700 -231 l 753 -272 q 635 -224 683 -272 q 586 -106 586 -175 q 624 0 586 -46 l 138 0 l 138 972 l 750 972 l 325 550 l 636 550 l 636 508 z "},"ę":{"ha":761,"x_min":97,"x_max":694,"o":"m 472 -12 q 421 -14 456 -14 q 172 85 247 -14 q 97 403 97 183 q 172 721 97 622 q 421 819 247 819 q 694 688 622 819 l 354 403 l 289 403 l 640 696 q 421 778 579 778 q 304 763 351 778 q 217 709 257 749 q 158 594 178 669 q 139 403 139 518 q 158 212 139 288 q 217 97 178 136 q 304 42 257 57 q 421 28 351 28 q 640 110 579 28 l 671 82 q 542 0 625 24 q 485 -106 485 -36 q 522 -194 485 -158 q 610 -231 558 -231 l 610 -272 q 492 -224 542 -272 q 443 -106 443 -175 q 472 -12 443 -56 z "},"Ě":{"ha":800,"x_min":138,"x_max":750,"o":"m 418 988 l 256 1182 l 288 1208 l 418 1053 l 549 1208 l 581 1182 l 418 988 m 636 508 l 224 508 l 649 931 l 179 931 l 179 42 l 718 42 l 718 0 l 138 0 l 138 972 l 750 972 l 325 550 l 636 550 l 636 508 z "},"ě":{"ha":761,"x_min":97,"x_max":694,"o":"m 419 835 l 257 1029 l 289 1056 l 419 900 l 550 1056 l 582 1029 l 419 835 m 671 82 q 421 -14 594 -14 q 172 85 247 -14 q 97 403 97 183 q 172 721 97 622 q 421 819 247 819 q 694 688 622 819 l 354 403 l 289 403 l 640 696 q 421 778 579 778 q 304 763 351 778 q 217 709 257 749 q 158 594 178 669 q 139 403 139 518 q 158 212 139 288 q 217 97 178 136 q 304 42 257 57 q 421 28 351 28 q 640 110 579 28 l 671 82 z "},"Ĝ":{"ha":854,"x_min":107,"x_max":753,"o":"m 433 1200 l 596 1006 l 564 979 l 433 1135 l 303 979 l 271 1006 l 433 1200 m 703 776 q 613 901 671 857 q 431 944 554 944 q 314 927 363 944 q 226 868 265 910 q 168 748 188 826 q 149 554 149 669 l 149 418 q 168 224 149 303 q 226 104 188 146 q 314 45 265 63 q 431 28 363 28 q 629 81 556 28 q 703 196 703 135 l 703 431 l 532 431 l 532 472 l 753 472 l 753 210 q 669 51 753 117 q 431 -14 585 -14 q 183 91 260 -14 q 107 418 107 196 l 107 554 q 183 881 107 776 q 431 986 260 986 q 636 935 568 986 q 742 792 704 885 l 703 776 z "},"ĝ":{"ha":792,"x_min":97,"x_max":694,"o":"m 406 1089 l 568 894 l 536 868 l 406 1024 l 275 868 l 243 894 l 406 1089 m 456 542 l 640 696 q 421 778 579 778 q 304 763 351 778 q 217 709 257 749 q 158 594 178 669 q 139 403 139 518 q 158 212 139 288 q 217 97 178 136 q 304 42 257 57 q 421 28 351 28 q 639 108 578 28 l 639 354 l 681 354 l 681 -12 q 438 -278 681 -278 l 275 -278 l 275 -236 l 438 -236 q 590 -181 542 -236 q 639 28 639 -126 l 639 49 q 421 -14 564 -14 q 172 85 247 -14 q 97 403 97 183 q 172 721 97 622 q 421 819 247 819 q 694 688 622 819 l 521 542 l 456 542 z "},"Ğ":{"ha":854,"x_min":107,"x_max":753,"o":"m 572 1138 q 531 1038 572 1078 q 433 999 489 999 q 334 1040 374 999 q 294 1138 294 1082 l 336 1138 q 365 1068 336 1096 q 433 1040 394 1040 q 503 1069 475 1040 q 531 1138 531 1099 l 572 1138 m 703 776 q 613 901 671 857 q 431 944 554 944 q 314 927 363 944 q 226 868 265 910 q 168 748 188 826 q 149 554 149 669 l 149 418 q 168 224 149 303 q 226 104 188 146 q 314 45 265 63 q 431 28 363 28 q 629 81 556 28 q 703 196 703 135 l 703 431 l 532 431 l 532 472 l 753 472 l 753 210 q 669 51 753 117 q 431 -14 585 -14 q 183 91 260 -14 q 107 418 107 196 l 107 554 q 183 881 107 776 q 431 986 260 986 q 636 935 568 986 q 742 792 704 885 l 703 776 z "},"ğ":{"ha":792,"x_min":97,"x_max":694,"o":"m 560 999 q 518 899 560 939 q 421 860 476 860 q 322 901 361 860 q 282 999 282 943 l 324 999 q 353 929 324 957 q 421 901 382 901 q 490 931 463 901 q 518 999 518 960 l 560 999 m 456 542 l 640 696 q 421 778 579 778 q 304 763 351 778 q 217 709 257 749 q 158 594 178 669 q 139 403 139 518 q 158 212 139 288 q 217 97 178 136 q 304 42 257 57 q 421 28 351 28 q 639 108 578 28 l 639 354 l 681 354 l 681 -12 q 438 -278 681 -278 l 275 -278 l 275 -236 l 438 -236 q 590 -181 542 -236 q 639 28 639 -126 l 639 49 q 421 -14 564 -14 q 172 85 247 -14 q 97 403 97 183 q 172 721 97 622 q 421 819 247 819 q 694 688 622 819 l 521 542 l 456 542 z "},"Ġ":{"ha":854,"x_min":107,"x_max":753,"o":"m 389 1128 l 481 1128 l 481 1047 l 389 1047 l 389 1128 m 703 776 q 613 901 671 857 q 431 944 554 944 q 314 927 363 944 q 226 868 265 910 q 168 748 188 826 q 149 554 149 669 l 149 418 q 168 224 149 303 q 226 104 188 146 q 314 45 265 63 q 431 28 363 28 q 629 81 556 28 q 703 196 703 135 l 703 431 l 532 431 l 532 472 l 753 472 l 753 210 q 669 51 753 117 q 431 -14 585 -14 q 183 91 260 -14 q 107 418 107 196 l 107 554 q 183 881 107 776 q 431 986 260 986 q 636 935 568 986 q 742 792 704 885 l 703 776 z "},"ġ":{"ha":792,"x_min":97,"x_max":694,"o":"m 374 989 l 465 989 l 465 908 l 374 908 l 374 989 m 456 542 l 640 696 q 421 778 579 778 q 304 763 351 778 q 217 709 257 749 q 158 594 178 669 q 139 403 139 518 q 158 212 139 288 q 217 97 178 136 q 304 42 257 57 q 421 28 351 28 q 639 108 578 28 l 639 354 l 681 354 l 681 -12 q 438 -278 681 -278 l 275 -278 l 275 -236 l 438 -236 q 590 -181 542 -236 q 639 28 639 -126 l 639 49 q 421 -14 564 -14 q 172 85 247 -14 q 97 403 97 183 q 172 721 97 622 q 421 819 247 819 q 694 688 622 819 l 521 542 l 456 542 z "},"Ģ":{"ha":854,"x_min":107,"x_max":753,"o":"m 365 -244 q 425 -132 425 -199 l 385 -132 l 385 -51 l 476 -51 q 458 -192 476 -150 q 393 -275 440 -233 l 365 -244 m 703 776 q 613 901 671 857 q 431 944 554 944 q 314 927 363 944 q 226 868 265 910 q 168 748 188 826 q 149 554 149 669 l 149 418 q 168 224 149 303 q 226 104 188 146 q 314 45 265 63 q 431 28 363 28 q 629 81 556 28 q 703 196 703 135 l 703 431 l 532 431 l 532 472 l 753 472 l 753 210 q 669 51 753 117 q 431 -14 585 -14 q 183 91 260 -14 q 107 418 107 196 l 107 554 q 183 881 107 776 q 431 986 260 986 q 636 935 568 986 q 742 792 704 885 l 703 776 z "},"ģ":{"ha":792,"x_min":97,"x_max":694,"o":"m 488 1079 q 428 967 428 1033 l 468 967 l 468 886 l 376 886 q 394 1026 376 985 q 460 1110 413 1068 l 488 1079 m 456 542 l 640 696 q 421 778 579 778 q 304 763 351 778 q 217 709 257 749 q 158 594 178 669 q 139 403 139 518 q 158 212 139 288 q 217 97 178 136 q 304 42 257 57 q 421 28 351 28 q 639 108 578 28 l 639 354 l 681 354 l 681 -12 q 438 -278 681 -278 l 275 -278 l 275 -236 l 438 -236 q 590 -181 542 -236 q 639 28 639 -126 l 639 49 q 421 -14 564 -14 q 172 85 247 -14 q 97 403 97 183 q 172 721 97 622 q 421 819 247 819 q 694 688 622 819 l 521 542 l 456 542 z "},"Ĥ":{"ha":858,"x_min":138,"x_max":721,"o":"m 721 0 l 679 0 l 679 486 l 179 486 l 179 0 l 138 0 l 138 972 l 179 972 l 179 528 l 679 528 l 679 972 l 721 972 l 721 0 m 429 1200 l 592 1006 l 560 979 l 429 1135 l 299 979 l 267 1006 l 429 1200 z "},"ĥ":{"ha":764,"x_min":132,"x_max":632,"o":"m 632 0 l 590 0 l 590 403 l 174 403 l 174 0 l 132 0 l 132 806 l 174 806 l 174 444 l 590 444 l 590 806 l 632 806 l 632 0 m 382 1089 l 544 894 l 513 868 l 382 1024 l 251 868 l 219 894 l 382 1089 z "},"Ħ":{"ha":858,"x_min":68,"x_max":790,"o":"m 68 764 l 68 806 l 138 806 l 138 972 l 179 972 l 179 806 l 679 806 l 679 972 l 721 972 l 721 806 l 790 806 l 790 764 l 721 764 l 721 0 l 679 0 l 679 486 l 179 486 l 179 0 l 138 0 l 138 764 l 68 764 m 679 764 l 179 764 l 179 528 l 679 528 l 679 764 z "},"ħ":{"ha":794,"x_min":78,"x_max":717,"o":"m 78 569 l 78 611 l 147 611 l 147 806 l 189 806 l 189 611 l 606 611 l 606 806 l 647 806 l 647 611 l 717 611 l 717 569 l 647 569 l 647 0 l 606 0 l 606 403 l 189 403 l 189 0 l 147 0 l 147 569 l 78 569 m 606 569 l 189 569 l 189 444 l 606 444 l 606 569 z "},"Ĩ":{"ha":317,"x_min":-7,"x_max":324,"o":"m 226 1003 q 153 1036 188 1003 q 90 1069 118 1069 q 51 1051 68 1069 q 35 1003 35 1033 l -7 1003 q 23 1081 -7 1051 q 90 1111 53 1111 q 164 1078 129 1111 q 226 1044 199 1044 q 265 1063 249 1044 q 282 1111 282 1081 l 324 1111 q 294 1033 324 1063 q 226 1003 264 1003 m 179 0 l 138 0 l 138 972 l 179 972 l 179 0 z "},"ĩ":{"ha":306,"x_min":-12,"x_max":318,"o":"m 221 864 q 147 897 182 864 q 85 931 113 931 q 46 913 63 931 q 29 864 29 894 l -12 864 q 17 942 -12 913 q 85 972 47 972 q 158 939 124 972 q 221 906 193 906 q 260 924 243 906 q 276 972 276 942 l 318 972 q 288 894 318 924 q 221 864 258 864 m 132 806 l 174 806 l 174 0 l 132 0 l 132 806 z "},"Ī":{"ha":317,"x_min":6,"x_max":311,"o":"m 6 1069 l 6 1111 l 311 1111 l 311 1069 l 6 1069 m 179 0 l 138 0 l 138 972 l 179 972 l 179 0 z "},"ī":{"ha":306,"x_min":0,"x_max":306,"o":"m 0 931 l 0 972 l 306 972 l 306 931 l 0 931 m 132 806 l 174 806 l 174 0 l 132 0 l 132 806 z "},"Ĭ":{"ha":317,"x_min":19,"x_max":297,"o":"m 297 1138 q 256 1038 297 1078 q 158 999 214 999 q 59 1040 99 999 q 19 1138 19 1082 l 61 1138 q 90 1068 61 1096 q 158 1040 119 1040 q 228 1069 200 1040 q 256 1138 256 1099 l 297 1138 m 179 0 l 138 0 l 138 972 l 179 972 l 179 0 z "},"ĭ":{"ha":306,"x_min":14,"x_max":292,"o":"m 292 999 q 250 899 292 939 q 153 860 208 860 q 53 901 93 860 q 14 999 14 943 l 56 999 q 85 929 56 957 q 153 901 114 901 q 222 931 194 901 q 250 999 250 960 l 292 999 m 132 806 l 174 806 l 174 0 l 132 0 l 132 806 z "},"Į":{"ha":318,"x_min":82,"x_max":249,"o":"m 139 21 l 139 972 l 181 972 l 181 0 q 124 -106 124 -36 q 160 -194 124 -158 q 249 -231 197 -231 l 249 -272 q 131 -224 181 -272 q 82 -106 82 -175 q 139 21 82 -29 z "},"į":{"ha":306,"x_min":75,"x_max":242,"o":"m 132 806 l 174 806 l 174 0 q 117 -106 117 -36 q 153 -194 117 -158 q 242 -231 189 -231 l 242 -272 q 124 -224 172 -272 q 75 -106 75 -175 q 132 21 75 -29 l 132 806 z "},"İ":{"ha":317,"x_min":113,"x_max":204,"o":"m 113 1128 l 204 1128 l 204 1047 l 113 1047 l 113 1128 m 179 0 l 138 0 l 138 972 l 179 972 l 179 0 z "},"ı":{"ha":306,"x_min":132,"x_max":174,"o":"m 132 806 l 174 806 l 174 0 l 132 0 l 132 806 z "},"Ĳ":{"ha":993,"x_min":138,"x_max":860,"o":"m 179 0 l 138 0 l 138 972 l 179 972 l 179 0 m 371 210 q 607 28 432 28 q 772 95 725 28 q 818 281 818 163 l 818 972 l 860 972 l 860 281 q 607 -14 860 -14 q 423 46 488 -14 q 321 210 358 106 l 371 210 z "},"ĳ":{"ha":622,"x_min":132,"x_max":490,"o":"m 132 806 l 174 806 l 174 0 l 132 0 l 132 806 m 258 -278 l 132 -278 l 132 -236 l 258 -236 q 411 -172 374 -236 q 449 17 449 -107 l 449 806 l 490 806 l 490 17 q 489 -46 490 -22 q 482 -110 488 -69 q 461 -174 476 -150 q 422 -226 446 -199 q 356 -265 397 -253 q 258 -278 314 -278 z "},"Ĵ":{"ha":700,"x_min":28,"x_max":710,"o":"m 547 1200 l 710 1006 l 678 979 l 547 1135 l 417 979 l 385 1006 l 547 1200 m 78 210 q 314 28 139 28 q 478 95 432 28 q 525 281 525 163 l 525 972 l 567 972 l 567 281 q 314 -14 567 -14 q 130 46 194 -14 q 28 210 65 106 l 78 210 z "},"ĵ":{"ha":600,"x_min":-29,"x_max":610,"o":"m 447 1089 l 610 894 l 578 868 l 447 1024 l 317 868 l 285 894 l 447 1089 m 21 -54 q 236 -236 58 -236 q 389 -172 351 -236 q 426 17 426 -107 l 426 806 l 468 806 l 468 17 q 467 -46 468 -22 q 460 -110 465 -69 q 439 -174 454 -150 q 399 -226 424 -199 q 333 -265 375 -253 q 236 -278 292 -278 q -29 -54 18 -278 l 21 -54 z "},"Ķ":{"ha":794,"x_min":138,"x_max":794,"o":"m 360 -244 q 419 -132 419 -199 l 379 -132 l 379 -51 l 471 -51 q 453 -192 471 -150 q 388 -275 435 -233 l 360 -244 m 179 972 l 179 0 l 138 0 l 138 972 l 179 972 m 750 972 l 283 508 l 794 0 l 735 0 l 224 508 l 690 972 l 750 972 z "},"ķ":{"ha":715,"x_min":132,"x_max":706,"o":"m 339 -244 q 399 -132 399 -199 l 358 -132 l 358 -51 l 450 -51 q 432 -192 450 -150 q 367 -275 414 -233 l 339 -244 m 132 0 l 132 806 l 174 806 l 174 0 l 132 0 m 646 0 l 218 425 l 601 806 l 661 806 l 278 425 l 706 0 l 646 0 z "},"Ĺ":{"ha":739,"x_min":138,"x_max":718,"o":"m 413 1194 l 250 1001 l 218 1028 l 381 1222 l 413 1194 m 718 42 l 718 0 l 138 0 l 138 972 l 179 972 l 179 42 l 718 42 z "},"ĺ":{"ha":624,"x_min":132,"x_max":596,"o":"m 393 1061 l 231 868 l 199 894 l 361 1089 l 393 1061 m 596 42 l 596 0 l 132 0 l 132 806 l 174 806 l 174 42 l 596 42 z "},"Ļ":{"ha":738,"x_min":138,"x_max":718,"o":"m 349 -244 q 408 -132 408 -199 l 368 -132 l 368 -51 l 460 -51 q 442 -192 460 -150 q 376 -275 424 -233 l 349 -244 m 718 42 l 718 0 l 138 0 l 138 972 l 179 972 l 179 42 l 718 42 z "},"ļ":{"ha":624,"x_min":132,"x_max":596,"o":"m 308 -244 q 368 -132 368 -199 l 328 -132 l 328 -51 l 419 -51 q 401 -192 419 -150 q 336 -275 383 -233 l 308 -244 m 596 42 l 596 0 l 132 0 l 132 806 l 174 806 l 174 42 l 596 42 z "},"Ľ":{"ha":739,"x_min":138,"x_max":718,"o":"m 333 675 q 370 761 349 696 q 392 892 392 826 l 351 892 l 351 972 l 443 972 q 368 653 443 763 l 333 675 m 718 42 l 718 0 l 138 0 l 138 972 l 179 972 l 179 42 l 718 42 z "},"ľ":{"ha":636,"x_min":132,"x_max":596,"o":"m 328 508 q 365 594 343 529 q 386 725 386 660 l 346 725 l 346 806 l 438 806 q 363 486 438 596 l 328 508 m 596 42 l 596 0 l 132 0 l 132 806 l 174 806 l 174 42 l 596 42 z "},"Ŀ":{"ha":739,"x_min":138,"x_max":718,"o":"m 432 497 l 524 497 l 524 417 l 432 417 l 432 497 m 718 42 l 718 0 l 138 0 l 138 972 l 179 972 l 179 42 l 718 42 z "},"ŀ":{"ha":638,"x_min":132,"x_max":596,"o":"m 357 497 l 449 497 l 449 417 l 357 417 l 357 497 m 596 42 l 596 0 l 132 0 l 132 806 l 174 806 l 174 42 l 596 42 z "},"Ł":{"ha":740,"x_min":54,"x_max":719,"o":"m 85 353 l 54 383 l 139 468 l 139 972 l 181 972 l 181 510 l 249 578 l 279 547 l 181 449 l 181 42 l 719 42 l 719 0 l 139 0 l 139 407 l 85 353 z "},"ł":{"ha":628,"x_min":51,"x_max":600,"o":"m 82 353 l 51 383 l 136 468 l 136 806 l 178 806 l 178 510 l 246 578 l 276 547 l 178 449 l 178 42 l 600 42 l 600 0 l 136 0 l 136 407 l 82 353 z "},"Ń":{"ha":885,"x_min":138,"x_max":747,"o":"m 572 1194 l 410 1001 l 378 1028 l 540 1222 l 572 1194 m 246 42 l 676 42 l 179 901 l 179 0 l 138 0 l 138 972 l 186 972 l 706 74 l 706 972 l 747 972 l 747 0 l 246 0 l 246 42 z "},"ń":{"ha":800,"x_min":132,"x_max":668,"o":"m 532 1061 l 369 868 l 338 894 l 500 1089 l 532 1061 m 132 0 l 132 806 l 174 806 l 626 76 l 626 806 l 668 806 l 668 0 l 626 0 l 174 731 l 174 0 l 132 0 z "},"Ņ":{"ha":885,"x_min":138,"x_max":747,"o":"m 700 0 l 179 901 l 179 0 l 138 0 l 138 972 l 186 972 l 706 74 l 706 972 l 747 972 l 747 0 l 700 0 m 375 -244 q 435 -132 435 -199 l 394 -132 l 394 -51 l 486 -51 q 468 -192 486 -150 q 403 -275 450 -233 l 375 -244 z "},"ņ":{"ha":800,"x_min":132,"x_max":668,"o":"m 339 -244 q 399 -132 399 -199 l 358 -132 l 358 -51 l 450 -51 q 432 -192 450 -150 q 367 -275 414 -233 l 339 -244 m 132 0 l 132 806 l 174 806 l 626 76 l 626 806 l 668 806 l 668 0 l 626 0 l 174 731 l 174 0 l 132 0 z "},"Ň":{"ha":885,"x_min":138,"x_max":747,"o":"m 435 988 l 272 1182 l 304 1208 l 435 1053 l 565 1208 l 597 1182 l 435 988 m 246 42 l 676 42 l 179 901 l 179 0 l 138 0 l 138 972 l 186 972 l 706 74 l 706 972 l 747 972 l 747 0 l 246 0 l 246 42 z "},"ň":{"ha":800,"x_min":132,"x_max":668,"o":"m 401 835 l 239 1029 l 271 1056 l 401 900 l 532 1056 l 564 1029 l 401 835 m 132 0 l 132 806 l 174 806 l 626 76 l 626 806 l 668 806 l 668 0 l 626 0 l 174 731 l 174 0 l 132 0 z "},"ŉ":{"ha":919,"x_min":28,"x_max":788,"o":"m 251 0 l 251 806 l 293 806 l 746 76 l 746 806 l 788 806 l 788 0 l 746 0 l 293 731 l 293 0 l 251 0 m 28 675 q 65 761 43 696 q 86 892 86 826 l 46 892 l 46 972 l 138 972 q 63 653 138 763 l 28 675 z "},"Ŋ":{"ha":889,"x_min":138,"x_max":785,"o":"m 138 972 l 179 972 l 179 819 q 461 986 249 986 q 708 881 632 986 q 785 554 785 776 l 785 415 q 703 117 785 235 q 504 0 622 0 l 369 0 l 369 42 l 504 42 q 673 151 603 42 q 743 415 743 261 l 743 554 q 724 748 743 669 q 665 868 704 826 q 578 927 626 910 q 461 944 529 944 q 344 927 393 944 q 257 868 296 910 q 199 748 218 826 q 179 554 179 669 l 179 0 l 138 0 l 138 972 z "},"ŋ":{"ha":828,"x_min":132,"x_max":710,"o":"m 132 806 l 174 806 l 174 658 q 421 819 242 819 q 710 403 710 819 l 710 138 q 628 -160 710 -43 q 429 -278 547 -278 l 294 -278 l 294 -236 l 429 -236 q 598 -126 528 -236 q 668 138 668 -17 l 668 403 q 602 694 668 610 q 421 778 536 778 q 240 694 306 778 q 174 403 174 610 l 174 0 l 132 0 l 132 806 z "},"Ō":{"ha":861,"x_min":107,"x_max":754,"o":"m 678 91 q 640 39 678 91 q 431 -14 601 -14 q 183 91 260 -14 q 107 418 107 196 l 107 554 q 183 881 107 776 q 431 986 260 986 q 678 881 601 986 q 754 554 754 776 l 754 418 q 678 91 754 196 m 547 927 q 523 936 547 927 q 431 944 499 944 q 314 927 363 944 q 226 868 265 910 q 168 748 188 826 q 149 554 149 669 l 149 418 q 168 224 149 303 q 226 104 188 146 q 314 45 265 63 q 431 28 363 28 q 547 45 499 28 q 635 104 596 63 q 693 224 674 146 q 713 418 713 303 l 713 554 q 693 748 713 669 q 635 868 674 826 q 547 927 596 910 m 278 1069 l 278 1111 l 583 1111 l 583 1069 l 278 1069 z "},"ō":{"ha":842,"x_min":97,"x_max":744,"o":"m 538 763 q 514 770 538 763 q 421 778 490 778 q 304 763 351 778 q 217 709 257 749 q 158 594 178 669 q 139 403 139 518 q 158 212 139 288 q 217 97 178 136 q 304 42 257 57 q 421 28 351 28 q 538 42 490 28 q 624 97 585 57 q 683 212 664 136 q 703 403 703 288 q 683 594 703 518 q 624 709 664 669 q 538 763 585 749 m 669 85 q 632 35 669 85 q 421 -14 594 -14 q 172 85 247 -14 q 97 403 97 183 q 172 721 97 622 q 421 819 247 819 q 669 721 594 819 q 744 403 744 622 q 669 85 744 183 m 268 931 l 268 972 l 574 972 l 574 931 l 268 931 z "},"Ŏ":{"ha":861,"x_min":107,"x_max":754,"o":"m 569 1138 q 528 1038 569 1078 q 431 999 486 999 q 331 1040 371 999 q 292 1138 292 1082 l 333 1138 q 363 1068 333 1096 q 431 1040 392 1040 q 500 1069 472 1040 q 528 1138 528 1099 l 569 1138 m 678 91 q 640 39 678 91 q 431 -14 601 -14 q 183 91 260 -14 q 107 418 107 196 l 107 554 q 183 881 107 776 q 431 986 260 986 q 678 881 601 986 q 754 554 754 776 l 754 418 q 678 91 754 196 m 547 927 q 523 936 547 927 q 431 944 499 944 q 314 927 363 944 q 226 868 265 910 q 168 748 188 826 q 149 554 149 669 l 149 418 q 168 224 149 303 q 226 104 188 146 q 314 45 265 63 q 431 28 363 28 q 547 45 499 28 q 635 104 596 63 q 693 224 674 146 q 713 418 713 303 l 713 554 q 693 748 713 669 q 635 868 674 826 q 547 927 596 910 z "},"ŏ":{"ha":842,"x_min":97,"x_max":744,"o":"m 560 999 q 518 899 560 939 q 421 860 476 860 q 322 901 361 860 q 282 999 282 943 l 324 999 q 353 929 324 957 q 421 901 382 901 q 490 931 463 901 q 518 999 518 960 l 560 999 m 538 763 q 514 770 538 763 q 421 778 490 778 q 304 763 351 778 q 217 709 257 749 q 158 594 178 669 q 139 403 139 518 q 158 212 139 288 q 217 97 178 136 q 304 42 257 57 q 421 28 351 28 q 538 42 490 28 q 624 97 585 57 q 683 212 664 136 q 703 403 703 288 q 683 594 703 518 q 624 709 664 669 q 538 763 585 749 m 669 85 q 632 35 669 85 q 421 -14 594 -14 q 172 85 247 -14 q 97 403 97 183 q 172 721 97 622 q 421 819 247 819 q 669 721 594 819 q 744 403 744 622 q 669 85 744 183 z "},"Ő":{"ha":861,"x_min":107,"x_max":754,"o":"m 482 1194 l 319 1001 l 288 1028 l 450 1222 l 482 1194 m 649 1194 l 486 1001 l 454 1028 l 617 1222 l 649 1194 m 678 91 q 640 39 678 91 q 431 -14 601 -14 q 183 91 260 -14 q 107 418 107 196 l 107 554 q 183 881 107 776 q 431 986 260 986 q 678 881 601 986 q 754 554 754 776 l 754 418 q 678 91 754 196 m 547 927 q 523 936 547 927 q 431 944 499 944 q 314 927 363 944 q 226 868 265 910 q 168 748 188 826 q 149 554 149 669 l 149 418 q 168 224 149 303 q 226 104 188 146 q 314 45 265 63 q 431 28 363 28 q 547 45 499 28 q 635 104 596 63 q 693 224 674 146 q 713 418 713 303 l 713 554 q 693 748 713 669 q 635 868 674 826 q 547 927 596 910 z "},"ő":{"ha":842,"x_min":97,"x_max":744,"o":"m 482 1061 l 319 868 l 288 894 l 450 1089 l 482 1061 m 649 1061 l 486 868 l 454 894 l 617 1089 l 649 1061 m 538 763 q 514 770 538 763 q 421 778 490 778 q 304 763 351 778 q 217 709 257 749 q 158 594 178 669 q 139 403 139 518 q 158 212 139 288 q 217 97 178 136 q 304 42 257 57 q 421 28 351 28 q 538 42 490 28 q 624 97 585 57 q 683 212 664 136 q 703 403 703 288 q 683 594 703 518 q 624 709 664 669 q 538 763 585 749 m 669 85 q 632 35 669 85 q 421 -14 594 -14 q 172 85 247 -14 q 97 403 97 183 q 172 721 97 622 q 421 819 247 819 q 669 721 594 819 q 744 403 744 622 q 669 85 744 183 z "},"Œ":{"ha":1299,"x_min":107,"x_max":1249,"o":"m 1135 508 l 722 508 l 1147 931 l 678 931 l 678 42 l 1217 42 l 1217 0 l 636 0 l 636 47 q 431 -14 563 -14 q 183 91 260 -14 q 107 418 107 196 l 107 554 q 183 881 107 776 q 431 986 260 986 q 636 925 563 986 l 636 972 l 1249 972 l 824 550 l 1135 550 l 1135 508 m 636 106 l 636 867 q 431 944 571 944 q 314 927 363 944 q 226 868 265 910 q 168 748 188 826 q 149 554 149 669 l 149 418 q 168 224 149 303 q 226 104 188 146 q 314 45 265 63 q 431 28 363 28 q 636 106 571 28 z "},"œ":{"ha":1367,"x_min":97,"x_max":1300,"o":"m 1276 82 q 1026 -14 1200 -14 q 826 38 899 -14 q 724 203 753 90 q 622 38 694 90 q 421 -14 549 -14 q 172 85 247 -14 q 97 403 97 183 q 172 721 97 622 q 421 819 247 819 q 622 767 549 819 q 724 603 694 715 q 826 767 753 715 q 1026 819 899 819 q 1300 688 1228 819 l 960 403 l 894 403 l 1246 696 q 1026 778 1185 778 q 910 763 957 778 q 823 709 863 749 q 764 594 783 669 q 744 403 744 518 q 764 212 744 288 q 823 97 783 136 q 910 42 863 57 q 1026 28 957 28 q 1246 110 1185 28 l 1276 82 m 538 763 q 514 770 538 763 q 421 778 490 778 q 304 763 351 778 q 217 709 257 749 q 158 594 178 669 q 139 403 139 518 q 158 212 139 288 q 217 97 178 136 q 304 42 257 57 q 421 28 351 28 q 538 42 490 28 q 624 97 585 57 q 683 212 664 136 q 703 403 703 288 q 683 594 703 518 q 624 709 664 669 q 538 763 585 749 z "},"Ŕ":{"ha":764,"x_min":138,"x_max":689,"o":"m 536 1194 l 374 1001 l 342 1028 l 504 1222 l 536 1194 m 246 42 l 629 42 l 461 503 l 539 547 q 635 715 635 600 q 307 931 635 931 l 179 931 l 179 0 l 138 0 l 138 972 l 307 972 q 583 905 490 972 q 676 715 676 838 q 560 511 676 576 l 513 485 l 689 0 l 246 0 l 246 42 z "},"ŕ":{"ha":717,"x_min":132,"x_max":660,"o":"m 481 1061 l 318 868 l 286 894 l 449 1089 l 481 1061 m 471 404 l 660 0 l 614 0 l 419 417 q 444 428 422 418 q 474 444 465 439 q 501 461 482 449 q 531 485 521 474 q 552 513 540 497 q 569 549 564 529 q 575 593 575 569 q 492 722 575 681 q 285 764 408 764 l 174 764 l 174 0 l 132 0 l 132 806 l 285 806 q 533 749 449 806 q 617 593 617 692 q 574 480 617 529 q 471 404 531 431 z "},"Ŗ":{"ha":764,"x_min":138,"x_max":689,"o":"m 644 0 l 461 503 l 539 547 q 635 715 635 600 q 307 931 635 931 l 179 931 l 179 0 l 138 0 l 138 972 l 307 972 q 583 905 490 972 q 676 715 676 838 q 560 511 676 576 l 513 485 l 689 0 l 644 0 m 349 -244 q 408 -132 408 -199 l 368 -132 l 368 -51 l 460 -51 q 442 -192 460 -150 q 376 -275 424 -233 l 349 -244 z "},"ŗ":{"ha":717,"x_min":132,"x_max":660,"o":"m 308 -244 q 368 -132 368 -199 l 328 -132 l 328 -51 l 419 -51 q 401 -192 419 -150 q 336 -275 383 -233 l 308 -244 m 471 404 l 660 0 l 614 0 l 419 417 q 444 428 422 418 q 474 444 465 439 q 501 461 482 449 q 531 485 521 474 q 552 513 540 497 q 569 549 564 529 q 575 593 575 569 q 492 722 575 681 q 285 764 408 764 l 174 764 l 174 0 l 132 0 l 132 806 l 285 806 q 533 749 449 806 q 617 593 617 692 q 574 480 617 529 q 471 404 531 431 z "},"Ř":{"ha":764,"x_min":138,"x_max":689,"o":"m 376 988 l 214 1182 l 246 1208 l 376 1053 l 507 1208 l 539 1182 l 376 988 m 246 42 l 629 42 l 461 503 l 539 547 q 635 715 635 600 q 307 931 635 931 l 179 931 l 179 0 l 138 0 l 138 972 l 307 972 q 583 905 490 972 q 676 715 676 838 q 560 511 676 576 l 513 485 l 689 0 l 246 0 l 246 42 z "},"ř":{"ha":717,"x_min":132,"x_max":660,"o":"m 351 835 l 189 1029 l 221 1056 l 351 900 l 482 1056 l 514 1029 l 351 835 m 471 404 l 660 0 l 614 0 l 419 417 q 444 428 422 418 q 474 444 465 439 q 501 461 482 449 q 531 485 521 474 q 552 513 540 497 q 569 549 564 529 q 575 593 575 569 q 492 722 575 681 q 285 764 408 764 l 174 764 l 174 0 l 132 0 l 132 806 l 285 806 q 533 749 449 806 q 617 593 617 692 q 574 480 617 529 q 471 404 531 431 z "},"Ś":{"ha":779,"x_min":74,"x_max":699,"o":"m 546 1194 l 383 1001 l 351 1028 l 514 1222 l 546 1194 m 108 732 q 176 926 108 867 q 397 986 244 986 q 569 931 504 986 q 664 761 635 875 l 535 664 l 467 664 l 617 776 q 533 907 588 869 q 397 944 478 944 q 303 938 342 944 q 227 910 265 931 q 169 846 189 890 q 150 732 150 801 q 206 624 150 671 q 343 543 263 576 q 505 475 424 510 q 642 386 586 440 q 699 261 699 332 q 630 54 699 122 q 394 -14 561 -14 q 181 41 258 -14 q 74 211 103 96 l 113 228 q 208 72 140 115 q 394 28 275 28 q 592 79 528 28 q 657 261 657 131 q 601 369 657 322 q 463 450 544 417 q 301 518 382 483 q 165 607 221 553 q 108 732 108 661 z "},"ś":{"ha":718,"x_min":88,"x_max":647,"o":"m 496 1061 l 333 868 l 301 894 l 464 1089 l 496 1061 m 344 822 q 589 746 517 822 l 561 715 q 350 781 494 781 q 133 608 133 781 q 186 502 133 542 q 315 442 239 463 q 466 398 390 421 q 594 324 542 375 q 647 192 647 274 q 568 39 647 96 q 339 -18 489 -18 q 194 1 265 -18 q 88 58 122 21 l 115 89 q 333 24 186 24 q 537 74 468 24 q 606 190 606 124 q 553 303 606 260 q 424 367 500 346 q 273 412 349 389 q 144 483 197 435 q 92 611 92 532 q 163 770 92 718 q 344 822 235 822 z "},"Ŝ":{"ha":782,"x_min":75,"x_max":700,"o":"m 375 1200 l 538 1006 l 506 979 l 375 1135 l 244 979 l 213 1006 l 375 1200 m 110 732 q 178 926 110 867 q 399 986 246 986 q 571 931 506 986 q 665 761 636 875 l 536 664 l 468 664 l 618 776 q 534 907 589 869 q 399 944 479 944 q 305 938 343 944 q 228 910 267 931 q 171 846 190 890 q 151 732 151 801 q 208 624 151 671 q 344 543 264 576 q 506 475 425 510 q 644 386 588 440 q 700 261 700 332 q 631 54 700 122 q 396 -14 563 -14 q 182 41 260 -14 q 75 211 104 96 l 114 228 q 209 72 142 115 q 396 28 276 28 q 594 79 529 28 q 658 261 658 131 q 602 369 658 322 q 465 450 546 417 q 303 518 383 483 q 166 607 222 553 q 110 732 110 661 z "},"ŝ":{"ha":718,"x_min":88,"x_max":647,"o":"m 347 1089 l 510 894 l 478 868 l 347 1024 l 217 868 l 185 894 l 347 1089 m 344 822 q 589 746 517 822 l 561 715 q 350 781 494 781 q 133 608 133 781 q 186 502 133 542 q 315 442 239 463 q 466 398 390 421 q 594 324 542 375 q 647 192 647 274 q 568 39 647 96 q 339 -18 489 -18 q 194 1 265 -18 q 88 58 122 21 l 115 89 q 333 24 186 24 q 537 74 468 24 q 606 190 606 124 q 553 303 606 260 q 424 367 500 346 q 273 412 349 389 q 144 483 197 435 q 92 611 92 532 q 163 770 92 718 q 344 822 235 822 z "},"Ş":{"ha":779,"x_min":74,"x_max":699,"o":"m 313 -244 q 372 -132 372 -199 l 332 -132 l 332 -51 l 424 -51 q 406 -192 424 -150 q 340 -275 388 -233 l 313 -244 m 108 732 q 176 926 108 867 q 397 986 244 986 q 569 931 504 986 q 664 761 635 875 l 535 664 l 467 664 l 617 776 q 533 907 588 869 q 397 944 478 944 q 303 938 342 944 q 227 910 265 931 q 169 846 189 890 q 150 732 150 801 q 206 624 150 671 q 343 543 263 576 q 505 475 424 510 q 642 386 586 440 q 699 261 699 332 q 630 54 699 122 q 394 -14 561 -14 q 181 41 258 -14 q 74 211 103 96 l 113 228 q 208 72 140 115 q 394 28 275 28 q 592 79 528 28 q 657 261 657 131 q 601 369 657 322 q 463 450 544 417 q 301 518 382 483 q 165 607 221 553 q 108 732 108 661 z "},"ş":{"ha":718,"x_min":86,"x_max":646,"o":"m 285 -244 q 344 -132 344 -199 l 304 -132 l 304 -51 l 396 -51 q 378 -192 396 -150 q 313 -275 360 -233 l 285 -244 m 343 822 q 588 746 515 822 l 560 715 q 349 781 493 781 q 132 608 132 781 q 185 502 132 542 q 313 442 238 463 q 465 398 389 421 q 593 324 540 375 q 646 192 646 274 q 567 39 646 96 q 338 -18 488 -18 q 192 1 264 -18 q 86 58 121 21 l 114 89 q 332 24 185 24 q 535 74 467 24 q 604 190 604 124 q 551 303 604 260 q 423 367 499 346 q 272 412 347 389 q 143 483 196 435 q 90 611 90 532 q 162 770 90 718 q 343 822 233 822 z "},"Š":{"ha":779,"x_min":74,"x_max":699,"o":"m 381 988 l 218 1182 l 250 1208 l 381 1053 l 511 1208 l 543 1182 l 381 988 m 108 732 q 176 926 108 867 q 397 986 244 986 q 569 931 504 986 q 664 761 635 875 l 535 664 l 467 664 l 617 776 q 533 907 588 869 q 397 944 478 944 q 303 938 342 944 q 227 910 265 931 q 169 846 189 890 q 150 732 150 801 q 206 624 150 671 q 343 543 263 576 q 505 475 424 510 q 642 386 586 440 q 699 261 699 332 q 630 54 699 122 q 394 -14 561 -14 q 181 41 258 -14 q 74 211 103 96 l 113 228 q 208 72 140 115 q 394 28 275 28 q 592 79 528 28 q 657 261 657 131 q 601 369 657 322 q 463 450 544 417 q 301 518 382 483 q 165 607 221 553 q 108 732 108 661 z "},"š":{"ha":718,"x_min":88,"x_max":647,"o":"m 336 835 l 174 1029 l 206 1056 l 336 900 l 467 1056 l 499 1029 l 336 835 m 344 822 q 589 746 517 822 l 561 715 q 350 781 494 781 q 133 608 133 781 q 186 502 133 542 q 315 442 239 463 q 466 398 390 421 q 594 324 542 375 q 647 192 647 274 q 568 39 647 96 q 339 -18 489 -18 q 194 1 265 -18 q 88 58 122 21 l 115 89 q 333 24 186 24 q 537 74 468 24 q 606 190 606 124 q 553 303 606 260 q 424 367 500 346 q 273 412 349 389 q 144 483 197 435 q 92 611 92 532 q 163 770 92 718 q 344 822 235 822 z "},"Ţ":{"ha":733,"x_min":19,"x_max":714,"o":"m 301 -244 q 361 -132 361 -199 l 321 -132 l 321 -51 l 413 -51 q 394 -192 413 -150 q 329 -275 376 -233 l 301 -244 m 714 972 l 714 931 l 388 931 l 388 0 l 346 0 l 346 931 l 19 931 l 19 972 l 714 972 z "},"ţ":{"ha":678,"x_min":26,"x_max":651,"o":"m 278 -244 q 338 -132 338 -199 l 297 -132 l 297 -51 l 389 -51 q 371 -192 389 -150 q 306 -275 353 -233 l 278 -244 m 651 806 l 651 764 l 360 764 l 360 0 l 318 0 l 318 764 l 26 764 l 26 806 l 651 806 z "},"Ť":{"ha":736,"x_min":21,"x_max":715,"o":"m 369 988 l 207 1182 l 239 1208 l 369 1053 l 500 1208 l 532 1182 l 369 988 m 715 972 l 715 931 l 389 931 l 389 0 l 347 0 l 347 931 l 21 931 l 21 972 l 715 972 z "},"ť":{"ha":681,"x_min":28,"x_max":653,"o":"m 340 835 l 178 1029 l 210 1056 l 340 900 l 471 1056 l 503 1029 l 340 835 m 653 806 l 653 764 l 361 764 l 361 0 l 319 0 l 319 764 l 28 764 l 28 806 l 653 806 z "},"Ŧ":{"ha":736,"x_min":21,"x_max":715,"o":"m 715 972 l 715 931 l 389 931 l 389 669 l 567 669 l 567 628 l 389 628 l 389 0 l 347 0 l 347 628 l 169 628 l 169 669 l 347 669 l 347 931 l 21 931 l 21 972 l 715 972 z "},"ŧ":{"ha":681,"x_min":28,"x_max":653,"o":"m 653 806 l 653 764 l 361 764 l 361 514 l 539 514 l 539 472 l 361 472 l 361 0 l 319 0 l 319 472 l 142 472 l 142 514 l 319 514 l 319 764 l 28 764 l 28 806 l 653 806 z "},"Ũ":{"ha":897,"x_min":125,"x_max":772,"o":"m 772 972 l 772 418 q 696 91 772 196 q 449 -14 619 -14 q 201 91 278 -14 q 125 418 125 196 l 125 972 l 167 972 l 167 418 q 186 224 167 303 q 244 104 206 146 q 332 45 283 63 q 449 28 381 28 q 565 45 517 28 q 653 104 614 63 q 711 224 692 146 q 731 418 731 303 l 731 972 l 772 972 m 517 1003 q 443 1036 478 1003 q 381 1069 408 1069 q 342 1051 358 1069 q 325 1003 325 1033 l 283 1003 q 313 1081 283 1051 q 381 1111 343 1111 q 454 1078 419 1111 q 517 1044 489 1044 q 556 1063 539 1044 q 572 1111 572 1081 l 614 1111 q 584 1033 614 1063 q 517 1003 554 1003 z "},"ũ":{"ha":814,"x_min":118,"x_max":696,"o":"m 160 806 l 160 403 q 226 112 160 196 q 407 28 292 28 q 588 112 522 28 q 654 403 654 196 l 654 806 l 696 806 l 696 403 q 407 -14 696 -14 q 118 403 118 -14 l 118 806 l 160 806 m 475 864 q 401 897 436 864 q 339 931 367 931 q 300 913 317 931 q 283 864 283 894 l 242 864 q 272 942 242 913 q 339 972 301 972 q 413 939 378 972 q 475 906 447 906 q 514 924 497 906 q 531 972 531 942 l 572 972 q 542 894 572 924 q 475 864 513 864 z "},"Ū":{"ha":897,"x_min":125,"x_max":772,"o":"m 772 972 l 772 418 q 696 91 772 196 q 449 -14 619 -14 q 201 91 278 -14 q 125 418 125 196 l 125 972 l 167 972 l 167 418 q 186 224 167 303 q 244 104 206 146 q 332 45 283 63 q 449 28 381 28 q 565 45 517 28 q 653 104 614 63 q 711 224 692 146 q 731 418 731 303 l 731 972 l 772 972 m 296 1069 l 296 1111 l 601 1111 l 601 1069 l 296 1069 z "},"ū":{"ha":814,"x_min":118,"x_max":696,"o":"m 254 931 l 254 972 l 560 972 l 560 931 l 254 931 m 160 806 l 160 403 q 226 112 160 196 q 407 28 292 28 q 588 112 522 28 q 654 403 654 196 l 654 806 l 696 806 l 696 403 q 407 -14 696 -14 q 118 403 118 -14 l 118 806 l 160 806 z "},"Ŭ":{"ha":897,"x_min":125,"x_max":772,"o":"m 772 972 l 772 418 q 696 91 772 196 q 449 -14 619 -14 q 201 91 278 -14 q 125 418 125 196 l 125 972 l 167 972 l 167 418 q 186 224 167 303 q 244 104 206 146 q 332 45 283 63 q 449 28 381 28 q 565 45 517 28 q 653 104 614 63 q 711 224 692 146 q 731 418 731 303 l 731 972 l 772 972 m 588 1138 q 546 1038 588 1078 q 449 999 504 999 q 349 1040 389 999 q 310 1138 310 1082 l 351 1138 q 381 1068 351 1096 q 449 1040 410 1040 q 518 1069 490 1040 q 546 1138 546 1099 l 588 1138 z "},"ŭ":{"ha":814,"x_min":118,"x_max":696,"o":"m 543 999 q 501 899 543 939 q 404 860 460 860 q 305 901 344 860 q 265 999 265 943 l 307 999 q 336 929 307 957 q 404 901 365 901 q 474 931 446 901 q 501 999 501 960 l 543 999 m 160 806 l 160 403 q 226 112 160 196 q 407 28 292 28 q 588 112 522 28 q 654 403 654 196 l 654 806 l 696 806 l 696 403 q 407 -14 696 -14 q 118 403 118 -14 l 118 806 l 160 806 z "},"Ů":{"ha":897,"x_min":125,"x_max":772,"o":"m 772 972 l 772 418 q 696 91 772 196 q 449 -14 619 -14 q 201 91 278 -14 q 125 418 125 196 l 125 972 l 167 972 l 167 418 q 186 224 167 303 q 244 104 206 146 q 332 45 283 63 q 449 28 381 28 q 565 45 517 28 q 653 104 614 63 q 711 224 692 146 q 731 418 731 303 l 731 972 l 772 972 m 449 1164 q 404 1145 422 1164 q 386 1101 386 1126 q 405 1057 386 1075 q 449 1039 424 1039 q 493 1058 475 1039 q 511 1101 511 1076 q 492 1146 511 1128 q 449 1164 474 1164 m 449 1199 q 517 1171 488 1199 q 546 1101 546 1143 q 518 1033 546 1063 q 449 1004 490 1004 q 381 1032 410 1004 q 351 1101 351 1060 q 379 1169 351 1140 q 449 1199 407 1199 z "},"ů":{"ha":814,"x_min":118,"x_max":696,"o":"m 417 1036 q 372 1017 390 1036 q 354 974 354 999 q 373 929 354 947 q 417 911 392 911 q 461 930 443 911 q 479 974 479 949 q 460 1018 479 1000 q 417 1036 442 1036 m 417 1071 q 485 1043 456 1071 q 514 974 514 1015 q 486 906 514 935 q 417 876 458 876 q 349 904 378 876 q 319 974 319 932 q 347 1042 319 1013 q 417 1071 375 1071 m 160 806 l 160 403 q 226 112 160 196 q 407 28 292 28 q 588 112 522 28 q 654 403 654 196 l 654 806 l 696 806 l 696 403 q 407 -14 696 -14 q 118 403 118 -14 l 118 806 l 160 806 z "},"Ű":{"ha":897,"x_min":125,"x_max":772,"o":"m 772 972 l 772 418 q 696 91 772 196 q 449 -14 619 -14 q 201 91 278 -14 q 125 418 125 196 l 125 972 l 167 972 l 167 418 q 186 224 167 303 q 244 104 206 146 q 332 45 283 63 q 449 28 381 28 q 565 45 517 28 q 653 104 614 63 q 711 224 692 146 q 731 418 731 303 l 731 972 l 772 972 m 500 1194 l 338 1001 l 306 1028 l 468 1222 l 500 1194 m 667 1194 l 504 1001 l 472 1028 l 635 1222 l 667 1194 z "},"ű":{"ha":814,"x_min":118,"x_max":696,"o":"m 456 1061 l 293 868 l 261 894 l 424 1089 l 456 1061 m 622 1061 l 460 868 l 428 894 l 590 1089 l 622 1061 m 160 806 l 160 403 q 226 112 160 196 q 407 28 292 28 q 588 112 522 28 q 654 403 654 196 l 654 806 l 696 806 l 696 403 q 407 -14 696 -14 q 118 403 118 -14 l 118 806 l 160 806 z "},"Ų":{"ha":899,"x_min":125,"x_max":771,"o":"m 240 972 l 771 974 l 771 419 q 720 133 771 236 q 558 0 669 31 q 501 -106 501 -36 q 538 -194 501 -158 q 626 -231 575 -231 l 626 -272 q 509 -224 558 -272 q 460 -106 460 -175 q 489 -12 460 -56 q 449 -14 476 -14 q 201 91 278 -14 q 125 418 125 196 l 125 972 l 167 972 l 167 418 q 186 224 167 303 q 244 104 206 146 q 332 45 283 63 q 449 28 381 28 q 565 45 517 28 q 653 104 614 63 q 711 224 692 146 q 731 418 731 303 l 731 931 l 240 931 l 240 972 z "},"ų":{"ha":819,"x_min":118,"x_max":697,"o":"m 160 806 l 161 403 q 227 112 161 196 q 408 28 293 28 q 590 112 524 28 q 656 403 656 196 l 656 806 l 697 806 l 697 403 q 503 0 697 61 q 446 -106 446 -36 q 483 -194 446 -158 q 571 -231 519 -231 l 571 -272 q 453 -224 503 -272 q 404 -106 404 -175 q 432 -14 404 -54 l 407 -14 q 118 403 118 -14 l 118 806 l 160 806 z "},"Ŵ":{"ha":1115,"x_min":24,"x_max":1092,"o":"m 1092 972 l 738 -1 l 557 493 l 378 -1 l 24 972 l 68 972 l 378 121 l 557 615 l 738 121 l 1047 972 l 1092 972 m 557 1200 l 719 1006 l 688 979 l 557 1135 l 426 979 l 394 1006 l 557 1200 z "},"ŵ":{"ha":1163,"x_min":25,"x_max":1138,"o":"m 1138 806 l 790 -14 l 582 479 l 372 -14 l 25 806 l 69 806 l 372 93 l 582 586 l 790 93 l 1093 806 l 1138 806 m 581 1061 l 743 867 l 711 840 l 581 996 l 450 840 l 418 867 l 581 1061 z "},"Ŷ":{"ha":758,"x_min":11,"x_max":747,"o":"m 747 972 l 400 417 l 400 0 l 358 0 l 358 417 l 11 972 l 60 972 l 379 463 l 699 972 l 747 972 m 379 1200 l 542 1006 l 510 979 l 379 1135 l 249 979 l 217 1006 l 379 1200 z "},"ŷ":{"ha":742,"x_min":24,"x_max":718,"o":"m 718 806 l 392 35 l 392 -278 l 350 -278 l 350 35 l 24 806 l 68 806 l 371 93 l 674 806 l 718 806 m 371 1061 l 533 867 l 501 840 l 371 996 l 240 840 l 208 867 l 371 1061 z "},"Ÿ":{"ha":758,"x_min":11,"x_max":747,"o":"m 747 972 l 400 417 l 400 0 l 358 0 l 358 417 l 11 972 l 60 972 l 379 463 l 699 972 l 747 972 m 457 1128 l 549 1128 l 549 1047 l 457 1047 l 457 1128 m 210 1128 l 301 1128 l 301 1047 l 210 1047 l 210 1128 z "},"Ź":{"ha":667,"x_min":43,"x_max":610,"o":"m 519 1194 l 357 1001 l 325 1028 l 488 1222 l 519 1194 m 610 0 l 43 0 l 538 931 l 79 931 l 79 972 l 607 972 l 113 42 l 610 42 l 610 0 z "},"ź":{"ha":642,"x_min":60,"x_max":579,"o":"m 486 1061 l 324 868 l 292 894 l 454 1089 l 486 1061 m 501 764 l 68 764 l 68 806 l 574 806 l 132 42 l 579 42 l 579 0 l 60 0 l 501 764 z "},"Ż":{"ha":667,"x_min":43,"x_max":610,"o":"m 296 1128 l 388 1128 l 388 1047 l 296 1047 l 296 1128 m 610 0 l 43 0 l 538 931 l 79 931 l 79 972 l 607 972 l 113 42 l 610 42 l 610 0 z "},"ż":{"ha":642,"x_min":60,"x_max":579,"o":"m 261 989 l 353 989 l 353 908 l 261 908 l 261 989 m 501 764 l 68 764 l 68 806 l 574 806 l 132 42 l 579 42 l 579 0 l 60 0 l 501 764 z "},"Ž":{"ha":667,"x_min":43,"x_max":610,"o":"m 335 988 l 172 1182 l 204 1208 l 335 1053 l 465 1208 l 497 1182 l 335 988 m 610 0 l 43 0 l 538 931 l 79 931 l 79 972 l 607 972 l 113 42 l 610 42 l 610 0 z "},"ž":{"ha":642,"x_min":60,"x_max":579,"o":"m 315 835 l 153 1029 l 185 1056 l 315 900 l 446 1056 l 478 1029 l 315 835 m 501 764 l 68 764 l 68 806 l 574 806 l 132 42 l 579 42 l 579 0 l 60 0 l 501 764 z "},"ƒ":{"ha":514,"x_min":-164,"x_max":442,"o":"m 160 403 l 160 139 q 84 -179 160 -81 q -164 -278 8 -278 l -164 -236 q -47 -222 -94 -236 q 40 -167 0 -207 q 99 -52 79 -128 q 118 139 118 24 l 118 403 q 194 721 118 622 q 442 819 269 819 l 442 778 q 236 709 306 778 q 160 444 167 640 l 432 444 l 432 403 l 160 403 z "},"Ǿ":{"ha":861,"x_min":107,"x_max":754,"o":"m 560 1194 l 397 1001 l 365 1028 l 528 1222 l 560 1194 m 431 944 q 314 927 363 944 q 226 868 265 910 q 168 748 188 826 q 149 554 149 669 l 149 418 q 246 83 149 168 l 581 913 q 431 944 524 944 m 236 -50 l 199 -35 l 231 43 q 107 418 107 139 l 107 554 q 183 881 107 776 q 431 986 260 986 q 596 951 531 986 l 625 1022 l 663 1007 l 631 929 q 754 554 754 833 l 754 418 q 678 91 754 196 q 431 -14 601 -14 q 265 21 331 -14 l 236 -50 m 615 889 l 281 60 q 431 28 338 28 q 547 45 499 28 q 635 104 596 63 q 693 224 674 146 q 713 418 713 303 l 713 554 q 615 889 713 804 z "},"ǿ":{"ha":842,"x_min":97,"x_max":744,"o":"m 550 1061 l 388 868 l 356 894 l 518 1089 l 550 1061 m 421 778 q 304 763 351 778 q 217 709 257 749 q 158 594 178 669 q 139 403 139 518 q 254 65 139 138 l 538 764 q 421 778 494 778 m 247 -61 l 210 -46 l 239 26 q 97 403 97 107 q 172 721 97 622 q 421 819 247 819 q 553 801 499 819 l 588 889 l 625 874 l 590 786 q 708 653 671 746 q 744 403 744 560 q 669 85 744 183 q 421 -14 594 -14 q 275 8 333 -14 l 247 -61 m 575 749 l 290 47 q 421 28 343 28 q 538 42 490 28 q 624 97 585 57 q 683 212 664 136 q 703 403 703 288 q 575 749 703 682 z "},"Ș":{"ha":779,"x_min":74,"x_max":699,"o":"m 313 -244 q 372 -132 372 -199 l 332 -132 l 332 -51 l 424 -51 q 406 -192 424 -150 q 340 -275 388 -233 l 313 -244 m 108 732 q 176 926 108 867 q 397 986 244 986 q 569 931 504 986 q 664 761 635 875 l 535 664 l 467 664 l 617 776 q 533 907 588 869 q 397 944 478 944 q 303 938 342 944 q 227 910 265 931 q 169 846 189 890 q 150 732 150 801 q 206 624 150 671 q 343 543 263 576 q 505 475 424 510 q 642 386 586 440 q 699 261 699 332 q 630 54 699 122 q 394 -14 561 -14 q 181 41 258 -14 q 74 211 103 96 l 113 228 q 208 72 140 115 q 394 28 275 28 q 592 79 528 28 q 657 261 657 131 q 601 369 657 322 q 463 450 544 417 q 301 518 382 483 q 165 607 221 553 q 108 732 108 661 z "},"ș":{"ha":718,"x_min":86,"x_max":646,"o":"m 285 -244 q 344 -132 344 -199 l 304 -132 l 304 -51 l 396 -51 q 378 -192 396 -150 q 313 -275 360 -233 l 285 -244 m 343 822 q 588 746 515 822 l 560 715 q 349 781 493 781 q 132 608 132 781 q 185 502 132 542 q 313 442 238 463 q 465 398 389 421 q 593 324 540 375 q 646 192 646 274 q 567 39 646 96 q 338 -18 488 -18 q 192 1 264 -18 q 86 58 121 21 l 114 89 q 332 24 185 24 q 535 74 467 24 q 604 190 604 124 q 551 303 604 260 q 423 367 499 346 q 272 412 347 389 q 143 483 196 435 q 90 611 90 532 q 162 770 90 718 q 343 822 233 822 z "},"Ț":{"ha":733,"x_min":19,"x_max":714,"o":"m 301 -244 q 361 -132 361 -199 l 321 -132 l 321 -51 l 413 -51 q 394 -192 413 -150 q 329 -275 376 -233 l 301 -244 m 714 972 l 714 931 l 388 931 l 388 0 l 346 0 l 346 931 l 19 931 l 19 972 l 714 972 z "},"ț":{"ha":678,"x_min":26,"x_max":651,"o":"m 278 -244 q 338 -132 338 -199 l 297 -132 l 297 -51 l 389 -51 q 371 -192 389 -150 q 306 -275 353 -233 l 278 -244 m 651 806 l 651 764 l 360 764 l 360 0 l 318 0 l 318 764 l 26 764 l 26 806 l 651 806 z "},"ʻ":{"ha":768,"x_min":338,"x_max":449,"o":"m 449 1079 q 389 967 389 1033 l 429 967 l 429 886 l 338 886 q 356 1026 338 985 q 421 1110 374 1068 l 449 1079 z "},"ˆ":{"ha":450,"x_min":63,"x_max":388,"o":"m 225 1089 l 388 894 l 356 868 l 225 1024 l 94 868 l 63 894 l 225 1089 z "},"ˇ":{"ha":450,"x_min":63,"x_max":388,"o":"m 225 868 l 63 1063 l 94 1089 l 225 933 l 356 1089 l 388 1063 l 225 868 z "},"˘":{"ha":417,"x_min":69,"x_max":347,"o":"m 347 932 q 306 833 347 872 q 208 793 264 793 q 109 835 149 793 q 69 932 69 876 l 111 932 q 140 863 111 890 q 208 835 169 835 q 278 864 250 835 q 306 932 306 893 l 347 932 z "},"˙":{"ha":217,"x_min":63,"x_max":154,"o":"m 63 989 l 154 989 l 154 908 l 63 908 l 63 989 z "},"˚":{"ha":319,"x_min":63,"x_max":257,"o":"m 160 1036 q 115 1017 133 1036 q 97 974 97 999 q 116 929 97 947 q 160 911 135 911 q 204 930 186 911 q 222 974 222 949 q 203 1018 222 1000 q 160 1036 185 1036 m 160 1071 q 228 1043 199 1071 q 257 974 257 1015 q 229 906 257 935 q 160 876 201 876 q 92 904 121 876 q 63 974 63 932 q 90 1042 63 1013 q 160 1071 118 1071 z "},"˛":{"ha":403,"x_min":132,"x_max":299,"o":"m 231 0 q 174 -106 174 -36 q 210 -194 174 -158 q 299 -231 247 -231 l 299 -272 q 181 -224 231 -272 q 132 -106 132 -175 q 206 33 132 -17 l 231 0 z "},"˜":{"ha":456,"x_min":63,"x_max":393,"o":"m 296 864 q 222 897 257 864 q 160 931 188 931 q 121 913 138 931 q 104 864 104 894 l 63 864 q 92 942 63 913 q 160 972 122 972 q 233 939 199 972 q 296 906 268 906 q 335 924 318 906 q 351 972 351 942 l 393 972 q 363 894 393 924 q 296 864 333 864 z "},"˝":{"ha":486,"x_min":63,"x_max":424,"o":"m 257 1061 l 94 868 l 63 894 l 225 1089 l 257 1061 m 424 1061 l 261 868 l 229 894 l 392 1089 l 424 1061 z "},"–":{"ha":664,"x_min":115,"x_max":549,"o":"m 115 326 l 115 368 l 549 368 l 549 326 l 115 326 z "},"—":{"ha":810,"x_min":115,"x_max":694,"o":"m 115 326 l 115 368 l 694 368 l 694 326 l 115 326 z "},"‘":{"ha":318,"x_min":108,"x_max":218,"o":"m 218 964 q 181 878 203 943 q 160 747 160 813 l 200 747 l 200 667 l 108 667 q 183 986 108 876 l 218 964 z "},"’":{"ha":307,"x_min":103,"x_max":213,"o":"m 103 675 q 140 761 118 696 q 161 892 161 826 l 121 892 l 121 972 l 213 972 q 138 653 213 763 l 103 675 z "},"‚":{"ha":322,"x_min":97,"x_max":207,"o":"m 97 -214 q 134 -128 113 -193 q 156 3 156 -62 l 115 3 l 115 83 l 207 83 q 132 -236 207 -126 l 97 -214 z "},"“":{"ha":485,"x_min":108,"x_max":385,"o":"m 218 964 q 181 878 203 943 q 160 747 160 813 l 200 747 l 200 667 l 108 667 q 183 986 108 876 l 218 964 m 385 964 q 348 878 369 943 q 326 747 326 813 l 367 747 l 367 667 l 275 667 q 350 986 275 876 l 385 964 z "},"”":{"ha":474,"x_min":103,"x_max":379,"o":"m 103 675 q 140 761 118 696 q 161 892 161 826 l 121 892 l 121 972 l 213 972 q 138 653 213 763 l 103 675 m 269 675 q 306 761 285 696 q 328 892 328 826 l 288 892 l 288 972 l 379 972 q 304 653 379 763 l 269 675 z "},"„":{"ha":489,"x_min":97,"x_max":374,"o":"m 97 -214 q 134 -128 113 -193 q 156 3 156 -62 l 115 3 l 115 83 l 207 83 q 132 -236 207 -126 l 97 -214 m 264 -214 q 301 -128 279 -193 q 322 3 322 -62 l 282 3 l 282 83 l 374 83 q 299 -236 374 -126 l 264 -214 z "},"†":{"ha":494,"x_min":74,"x_max":421,"o":"m 74 747 l 74 781 l 231 781 l 231 972 l 264 972 l 264 781 l 421 781 l 421 747 l 264 747 l 264 167 l 231 167 l 231 747 l 74 747 z "},"‡":{"ha":539,"x_min":96,"x_max":443,"o":"m 443 392 l 443 358 l 286 358 l 286 167 l 253 167 l 253 358 l 96 358 l 96 392 l 253 392 l 253 747 l 96 747 l 96 781 l 253 781 l 253 972 l 286 972 l 286 781 l 443 781 l 443 747 l 286 747 l 286 392 l 443 392 z "},"•":{"ha":567,"x_min":124,"x_max":443,"o":"m 124 639 l 443 639 l 443 319 l 124 319 l 124 639 m 401 361 l 401 597 l 165 597 l 165 361 l 401 361 z "},"…":{"ha":728,"x_min":110,"x_max":618,"o":"m 110 81 l 201 81 l 201 0 l 110 0 l 110 81 m 318 81 l 410 81 l 410 0 l 318 0 l 318 81 m 526 81 l 618 81 l 618 0 l 526 0 l 526 81 z "},"‰":{"ha":1151,"x_min":85,"x_max":1074,"o":"m 935 401 q 865 372 893 401 q 838 304 838 343 q 867 235 838 263 q 935 207 896 207 q 1004 236 976 207 q 1032 304 1032 265 q 1003 374 1032 346 q 935 401 974 401 m 796 304 q 838 403 796 364 q 935 443 879 443 q 1034 401 994 443 q 1074 304 1074 360 q 1032 205 1074 244 q 935 165 990 165 q 835 207 875 165 q 796 304 796 249 m 588 401 q 518 372 546 401 q 490 304 490 343 q 519 235 490 263 q 588 207 549 207 q 657 236 629 207 q 685 304 685 265 q 656 374 685 346 q 588 401 626 401 m 449 304 q 490 403 449 364 q 588 443 532 443 q 687 401 647 443 q 726 304 726 360 q 685 205 726 244 q 588 165 643 165 q 488 207 528 165 q 449 304 449 249 m 224 765 q 154 736 182 765 q 126 668 126 707 q 156 599 126 626 q 224 571 185 571 q 293 600 265 571 q 321 668 321 629 q 292 738 321 710 q 224 765 263 765 m 85 668 q 126 767 85 728 q 224 807 168 807 q 323 765 283 807 q 363 668 363 724 q 321 569 363 608 q 224 529 279 529 q 124 571 164 529 q 85 668 85 613 m 194 246 l 165 275 l 617 726 l 646 697 l 194 246 z "},"‹":{"ha":433,"x_min":85,"x_max":306,"o":"m 85 486 l 279 649 l 306 617 l 150 486 l 306 356 l 279 324 l 85 486 z "},"›":{"ha":433,"x_min":128,"x_max":349,"o":"m 349 486 l 154 324 l 128 356 l 283 486 l 128 617 l 154 649 l 349 486 z "},"€":{"ha":861,"x_min":81,"x_max":775,"o":"m 775 178 q 669 36 738 86 q 465 -14 601 -14 q 222 86 299 -14 q 142 396 144 186 l 81 396 l 81 438 l 142 438 l 142 554 l 142 590 l 81 590 l 81 632 l 144 632 q 234 899 157 813 q 465 986 311 986 q 669 936 601 986 q 775 794 738 886 l 738 776 q 647 901 706 857 q 465 944 589 944 q 269 876 339 944 q 186 632 199 808 l 544 632 l 544 590 l 183 590 l 183 554 l 183 438 l 544 438 l 544 396 l 183 396 q 258 107 188 186 q 465 28 329 28 q 647 72 589 28 q 738 196 706 115 l 775 178 z "},"№":{"ha":1311,"x_min":144,"x_max":1235,"o":"m 835 42 l 1235 42 l 1235 0 l 835 0 l 835 42 m 1134 546 q 1118 563 1134 546 q 1035 581 1103 581 q 935 545 967 581 q 904 403 904 510 q 935 260 904 294 q 1035 225 967 225 q 1134 260 1103 225 q 1165 403 1165 296 q 1134 546 1165 511 m 1035 183 q 903 237 943 183 q 863 403 863 290 q 903 569 863 517 q 1035 622 944 622 q 1167 569 1126 622 q 1207 403 1207 515 q 1166 236 1207 289 q 1035 183 1125 183 m 707 0 l 186 901 l 186 0 l 144 0 l 144 972 l 193 972 l 713 74 l 713 972 l 754 972 l 754 0 l 707 0 z "},"℗":{"ha":847,"x_min":100,"x_max":747,"o":"m 540 763 q 517 770 540 763 q 424 778 493 778 q 307 763 354 778 q 220 709 260 749 q 161 594 181 669 q 142 403 142 518 q 161 212 142 288 q 220 97 181 136 q 307 42 260 57 q 424 28 354 28 q 540 42 493 28 q 627 97 588 57 q 686 212 667 136 q 706 403 706 288 q 686 594 706 518 q 627 709 667 669 q 540 763 588 749 m 672 85 q 635 35 672 85 q 424 -14 597 -14 q 175 85 250 -14 q 100 403 100 183 q 175 721 100 622 q 424 819 250 819 q 672 721 597 819 q 747 403 747 622 q 672 85 747 183 m 540 475 q 388 572 540 572 l 335 572 l 335 192 l 293 192 l 293 614 l 388 614 q 481 603 443 614 q 582 475 582 572 q 519 364 582 399 l 471 338 l 450 374 l 499 401 q 540 475 540 425 z "},"™":{"ha":935,"x_min":99,"x_max":801,"o":"m 418 972 l 418 931 l 279 931 l 279 556 l 238 556 l 238 931 l 99 931 l 99 972 l 418 972 m 501 875 l 501 556 l 460 557 l 460 974 l 501 974 l 631 696 l 760 972 l 801 972 l 801 556 l 760 554 l 760 874 l 631 597 l 501 875 z "}}}
